<?xml version="1.0" encoding="UTF-8" standalone="no"?>
<!-- Created with Inkscape (http://www.inkscape.org/) -->

<svg
   version="1.1"
   id="svg1"
   width="430.86771"
   height="425.19806"
   viewBox="0 0 430.86771 425.19806"
   sodipodi:docname="vector_icon.svg"
   inkscape:version="1.4 (86a8ad7, 2024-10-11)"
   xmlns:inkscape="http://www.inkscape.org/namespaces/inkscape"
   xmlns:sodipodi="http://sodipodi.sourceforge.net/DTD/sodipodi-0.dtd"
   xmlns="http://www.w3.org/2000/svg"
   xmlns:svg="http://www.w3.org/2000/svg">
  <defs
     id="defs1" />
  <sodipodi:namedview
     id="namedview1"
     pagecolor="#ffffff"
     bordercolor="#000000"
     borderopacity="0.25"
     inkscape:showpageshadow="2"
     inkscape:pageopacity="0.0"
     inkscape:pagecheckerboard="0"
     inkscape:deskcolor="#d1d1d1"
     inkscape:zoom="0.63146779"
     inkscape:cx="323.05686"
     inkscape:cy="314.34699"
     inkscape:window-width="1304"
     inkscape:window-height="745"
     inkscape:window-x="54"
     inkscape:window-y="-8"
     inkscape:window-maximized="1"
     inkscape:current-layer="g1" />
  <g
     inkscape:groupmode="layer"
     inkscape:label="Image"
     id="g1"
     transform="translate(-268.12152,-115.73236)">
    <path
       style="fill:#000000"
       d="m 461,540.48537 c -6.325,-0.41198 -16.76151,-1.69722 -23.19225,-2.85609 -6.43074,-1.15886 -15.42644,-3.28665 -19.99044,-4.72842 -4.56399,-1.44176 -12.11012,-4.38251 -16.76916,-6.535 -4.65904,-2.15248 -8.71335,-4.25998 -9.00957,-4.68333 -0.29622,-0.42334 -2.11358,-1.74295 -4.03858,-2.93246 -1.925,-1.1895 -6.5375,-5.30043 -10.25,-9.1354 -3.7125,-3.83496 -6.75,-7.39537 -6.75,-7.91203 0,-0.51665 0.67238,-1.49739 1.49417,-2.17942 1.21006,-1.00426 4.10982,-0.56435 15.25,2.31348 7.56571,1.95445 17.58083,4.22747 22.25583,5.05117 4.675,0.82371 12.775,2.07998 18,2.79173 5.78302,0.78776 20.06406,1.30038 36.5,1.31018 16.03147,0.01 31.46866,-0.51411 38,-1.28905 6.05,-0.71783 17.525,-2.41988 25.5,-3.78234 7.975,-1.36245 22.6,-4.54734 32.5,-7.07752 9.9,-2.53018 19.37502,-4.80184 21.05559,-5.04812 1.95203,-0.28606 3.50473,0.0934 4.29919,1.05065 0.99876,1.20345 0.92643,2.4681 -0.36741,6.4238 -0.88605,2.70894 -2.4683,6.33506 -3.5161,8.05803 -1.0478,1.72297 -3.83248,4.53897 -6.18818,6.25778 -2.3557,1.71881 -7.43309,4.72256 -11.28309,6.67501 -3.85,1.95245 -11.44676,5.04994 -16.88169,6.88332 -5.43494,1.83337 -16.00994,4.65294 -23.5,6.26571 -7.49007,1.61276 -17.44331,3.40065 -22.11831,3.97308 -4.675,0.57243 -13.225,1.22383 -19,1.44755 -5.775,0.22372 -15.675,0.0697 -22,-0.34231 z m -34.5,-36.96665 c -7.7,-0.46926 -19.85,-1.57279 -27,-2.45229 -7.15,-0.8795 -17.95,-2.52082 -24,-3.64738 -6.05,-1.12655 -14.375,-2.93172 -18.5,-4.01148 -4.125,-1.07976 -11.775,-3.35164 -17,-5.04862 -5.225,-1.69698 -13.86718,-5.24976 -19.20484,-7.89507 -5.33767,-2.6453 -12.31267,-6.63099 -15.5,-8.85708 -3.18734,-2.22609 -7.20043,-5.29415 -8.91797,-6.81792 -1.71755,-1.52377 -4.0578,-4.57049 -5.20056,-6.77049 -1.14276,-2.2 -4.61261,-6.475 -7.71078,-9.5 -3.09817,-3.025 -6.44359,-6.625 -7.43426,-8 -0.99067,-1.375 -3.01466,-4.67717 -4.49776,-7.33816 -1.55189,-2.78442 -2.93327,-7.13188 -3.25422,-10.24166 -0.40262,-3.90103 -0.0542,-6.72184 1.253,-10.14473 1.00306,-2.6265 3.68333,-6.53298 6.00915,-8.75834 2.30915,-2.20941 7.15795,-5.48685 10.77511,-7.28321 3.61717,-1.79635 9.41312,-4.11929 12.8799,-5.16209 3.46678,-1.0428 8.55323,-2.3497 11.30323,-2.90421 2.75,-0.55452 9.05,-1.28969 14,-1.63371 6.49418,-0.45135 9.67407,-0.26472 11.42103,0.6703 1.33157,0.71269 2.60104,1.84171 2.82104,2.50893 0.22487,0.68195 -0.83517,1.47765 -2.42103,1.81729 -1.55157,0.33229 -6.64604,1.74208 -11.32104,3.13285 -4.675,1.39078 -11.875,4.27779 -16,6.41559 -4.125,2.1378 -9.8625,5.9545 -12.75,8.48157 -5.07446,4.44104 -5.24927,4.76762 -5.22804,9.76712 0.0121,2.84485 0.85105,6.99777 1.86437,9.22872 1.01332,2.23094 4.04094,5.94913 6.72804,8.26265 2.69981,2.32446 11.59659,7.52112 19.88563,11.6153 8.25,4.0749 19.725,8.99286 25.5,10.9288 5.775,1.93594 15,4.64144 20.5,6.01222 5.5,1.37079 13.6,3.16329 18,3.98335 4.4,0.82006 11.6,1.9737 16,2.56364 4.4,0.58994 12.275,1.50446 17.5,2.03226 5.225,0.52779 18.05,1.17481 28.5,1.43781 15.36866,0.3868 17.18433,0.30558 9.5,-0.42491 -5.225,-0.49671 -12.875,-1.62803 -17,-2.51405 -4.125,-0.88602 -10.65,-2.52643 -14.5,-3.64535 -3.85,-1.11892 -11.1456,-3.96984 -16.21244,-6.33538 -5.06685,-2.36554 -12.62183,-6.65789 -16.78886,-9.53855 -4.16703,-2.88066 -10.99882,-8.65678 -15.18177,-12.83581 -4.18294,-4.17903 -9.83183,-10.74824 -12.55308,-14.59824 -2.72126,-3.85 -6.89884,-11.05 -9.28351,-16 -2.38468,-4.95 -5.49997,-12.6 -6.92287,-17 -1.4229,-4.4 -3.22501,-11.375 -4.00468,-15.5 -0.77968,-4.125 -1.65239,-9.075 -1.93937,-11 -0.3696,-2.47925 -0.23898,-3.06254 0.44789,-2 0.53332,0.825 3.17721,5.22527 5.87532,9.77839 2.6981,4.55311 7.52863,11.94544 10.7345,16.42739 3.20588,4.48195 10.32887,12.68449 15.82887,18.22785 5.5,5.54337 13.825,12.83676 18.5,16.20753 4.675,3.37078 13.42062,8.66215 19.43472,11.75861 6.01409,3.09645 14.56409,6.77729 19,8.17963 4.4359,1.40233 11.21528,3.23961 15.06528,4.08284 3.85,0.84322 13.3,1.76507 21,2.04856 10.45734,0.38499 16.40395,0.0977 23.5,-1.13543 5.225,-0.90797 12.65,-2.58481 16.5,-3.72632 3.85,-1.14151 11.08117,-3.9808 16.06927,-6.30955 4.9881,-2.32874 12.1881,-6.27299 16,-8.76499 3.8119,-2.49201 10.51797,-7.63599 14.90237,-11.43107 4.38441,-3.79509 11.08009,-10.48739 14.8793,-14.8718 3.7992,-4.3844 9.4632,-11.79664 12.58665,-16.47164 3.12346,-4.675 7.09274,-11.04075 8.82063,-14.14611 1.72788,-3.10536 4.04285,-9.16416 5.14437,-13.46399 1.10151,-4.29984 1.86925,-7.9514 1.70607,-8.11458 -0.16317,-0.16317 -2.11572,0.34512 -4.33899,1.12953 -2.22326,0.78441 -10.95596,3.02101 -19.40598,4.97022 -8.45003,1.94921 -20.98869,4.44819 -27.86369,5.5533 -6.875,1.1051 -16.1,2.47752 -20.5,3.04982 -4.4,0.5723 -14.525,1.71989 -22.5,2.5502 -7.975,0.8303 -25.975,1.78666 -40,2.12523 -16.26575,0.39266 -30.56979,0.19274 -39.5,-0.55209 -7.7,-0.64222 -18.6489,-1.85166 -24.33089,-2.68765 -5.68198,-0.83598 -14.45698,-2.56928 -19.5,-3.85176 -5.04301,-1.28249 -12.87715,-3.7646 -17.4092,-5.51582 -4.53204,-1.75122 -10.36264,-4.61554 -12.95688,-6.36517 -2.85159,-1.92319 -5.97309,-5.28598 -7.89375,-8.50393 -1.74732,-2.92754 -3.46402,-7.11807 -3.81489,-9.31228 -0.35087,-2.19421 -0.18925,-5.64895 0.35916,-7.6772 0.5484,-2.02825 2.34753,-5.32253 3.99805,-7.32063 1.88389,-2.28059 6.08077,-5.13966 11.27468,-7.68074 4.6546,-2.27722 13.08537,-5.21356 19.27372,-6.71281 6.05,-1.46573 17.63349,-3.51904 25.74109,-4.56292 8.1076,-1.04387 25.4326,-2.36795 38.5,-2.94239 16.65301,-0.73207 31.08646,-0.72589 48.25891,0.0206 13.475,0.5858 31.44226,1.74329 39.92725,2.57221 8.48499,0.82892 21.47743,2.39622 28.87209,3.4829 7.39466,1.08667 17.10239,2.88945 21.57275,4.00617 4.47035,1.11672 9.90196,2.71826 12.07024,3.55898 2.16829,0.84072 5.17353,2.40526 6.67832,3.47677 2.38063,1.69515 2.71282,2.56291 2.55766,6.68114 -0.17242,4.57651 -0.33201,4.80923 -4.82837,7.04087 -2.55753,1.26936 -9.30753,3.1452 -15,4.16853 -5.69247,1.02334 -17.32494,2.56302 -25.84994,3.42152 -8.525,0.8585 -23.825,2.00567 -34,2.54926 -10.175,0.54359 -27.05,1.27478 -37.5,1.62487 -14.4565,0.48431 -22.58698,0.2436 -34,-1.00659 -8.25,-0.90372 -15.84696,-1.89985 -16.88213,-2.21364 -1.50723,-0.45688 -1.60683,-0.74488 -0.5,-1.44588 0.76017,-0.48145 2.95713,-0.92284 4.88213,-0.98087 3.5,-0.1055 3.5,-0.1055 0,-1.10546 -1.925,-0.54997 -4.0625,-1.46449 -4.75,-2.03225 -0.6875,-0.56777 -1.25,-1.58386 -1.25,-2.25798 0,-0.67413 1.6875,-1.95639 3.75,-2.84948 2.0625,-0.89308 7.45087,-2.29979 11.97416,-3.12601 4.52329,-0.82623 15.43745,-2.01611 24.2537,-2.64419 8.81625,-0.62807 18.95288,-0.82889 22.52584,-0.44626 4.46733,0.47841 6.4963,1.12019 6.4963,2.05483 0,0.84905 -1.59503,1.55834 -4.25,1.88994 -2.3375,0.29195 -11.37522,0.99327 -20.08383,1.5585 -8.70861,0.56523 -16.58361,1.44729 -17.5,1.96014 -1.44491,0.80863 -1.32465,1.06231 0.90552,1.91024 1.41444,0.53777 9.06444,1.28836 17,1.66797 8.63316,0.41297 20.25226,0.22663 28.92831,-0.46395 7.975,-0.63478 19.45,-1.82481 25.5,-2.6445 6.05,-0.81969 14.4875,-2.41857 18.75,-3.55306 4.2625,-1.13449 7.75,-2.39506 7.75,-2.80128 0,-0.40622 -1.6875,-1.45288 -3.75,-2.32592 -2.0625,-0.87304 -5.325,-2.03328 -7.25,-2.57831 -1.925,-0.54503 -7.85859,-1.747 -13.18575,-2.67104 -8.146,-1.413 -14.58431,-1.60306 -40.5,-1.19558 -19.6897,0.30958 -35.50751,1.075 -43.81425,2.12015 -7.15,0.8996 -18.4,2.54278 -25,3.65151 -6.6,1.10872 -18.75,3.63802 -27,5.62066 -8.25,1.98264 -17.05327,4.63427 -19.56281,5.8925 -2.50955,1.25823 -5.1071,2.94351 -5.77234,3.74507 -1.00593,1.21208 -0.44273,1.81782 3.34604,3.59875 2.50556,1.17776 7.57811,2.76555 11.27234,3.52844 3.69422,0.76289 10.76677,1.8892 15.71677,2.50292 4.95,0.61372 15.525,1.54853 23.5,2.07736 7.975,0.52883 28.70983,0.96818 46.0774,0.97634 17.83697,0.008 41.33426,-0.64406 54,-1.49938 12.33243,-0.83281 28.0476,-2.19552 34.9226,-3.02825 6.875,-0.83272 17.9,-2.41349 24.5,-3.51281 6.6,-1.09933 16.275,-3.10143 21.5,-4.44911 5.225,-1.34768 10.5855,-2.75709 11.91223,-3.13203 2.41223,-0.6817 2.41223,-0.6817 1.77007,11.26108 -0.35319,6.56853 -1.36486,15.75255 -2.24816,20.40893 -0.8833,4.65638 -2.86742,12.10667 -4.40915,16.5562 -1.54173,4.44952 -4.74634,12.32458 -7.12135,17.50012 -2.37501,5.17554 -5.35557,11.09758 -6.62347,13.16008 -1.26789,2.0625 -2.06338,3.75 -1.76775,3.75 0.29563,0 3.76677,-1.62623 7.71365,-3.61385 3.94688,-1.98762 10.79814,-5.85704 15.22504,-8.59873 4.42689,-2.74169 11.19889,-7.28404 15.04889,-10.09411 3.85,-2.81008 10.15,-7.75125 14,-10.98039 3.85,-3.22914 13.21631,-12.02305 20.81403,-19.54204 7.59772,-7.51899 14.73051,-15.14729 15.85066,-16.95178 1.35198,-2.17797 1.82531,-4.12281 1.40803,-5.78537 -0.34572,-1.37746 -1.68034,-2.90435 -2.96584,-3.3931 -1.34751,-0.51232 -3.98234,-0.51864 -6.22207,-0.0149 -2.13664,0.48053 -9.23577,3.41763 -15.77583,6.52689 -7.17428,3.41078 -14.92852,6.28128 -19.54867,7.23662 -6.5748,1.35952 -8.33322,1.39429 -12.43504,0.24585 -2.89815,-0.81143 -5.38426,-2.26381 -6.3202,-3.69223 -1.326,-2.02373 -1.3544,-2.80953 -0.20211,-5.59141 0.73739,-1.78022 2.90265,-4.96564 4.81168,-7.07871 1.90903,-2.11307 5.40455,-5.17228 7.76781,-6.79825 2.36326,-1.62597 7.114,-4.01084 10.55719,-5.29971 3.4432,-1.28888 8.99562,-2.65568 12.33871,-3.03735 4.58042,-0.52293 8.21362,-0.18682 14.74292,1.36389 4.76551,1.13181 10.80526,3.15204 13.42165,4.48941 2.61639,1.33737 6.72814,4.13175 9.1372,6.20974 2.40907,2.07798 4.99657,5.25351 5.75,7.05673 0.75344,1.80322 1.36501,4.98053 1.35906,7.0607 -0.006,2.08016 -0.64163,5.86045 -1.4126,8.40063 -0.77098,2.54019 -2.38716,6.59019 -3.59151,9 -1.20435,2.40982 -4.20141,7.38782 -6.66013,11.06223 -2.45871,3.6744 -8.03838,10.49429 -12.39927,15.15531 -7.92889,8.47458 -7.92889,8.47458 -2.02645,7.93937 3.24634,-0.29437 7.53168,-0.22957 9.52299,0.14401 1.9913,0.37357 5.175,2.04404 7.07488,3.71216 1.89988,1.66811 3.88615,4.59685 4.41393,6.50831 0.68967,2.49779 0.58262,4.54382 -0.38059,7.27384 -0.7371,2.08916 -2.50798,6.35156 -3.9353,9.472 -1.42732,3.12044 -2.59513,5.94055 -2.59513,6.2669 0,0.32636 -1.99008,3.38222 -4.42239,6.7908 -2.43231,3.40858 -7.06492,8.64073 -10.29467,11.62699 -3.22976,2.98626 -9.67718,7.95623 -14.32761,11.04438 -4.65043,3.08814 -11.60533,7.19507 -15.45533,9.1265 -3.85,1.93143 -10.375,4.89641 -14.5,6.58884 -4.125,1.69243 -11.325,4.46476 -16,6.16074 -4.675,1.69597 -15.025,4.81251 -23,6.92564 -7.975,2.11312 -17.875,4.55367 -22,5.42343 -4.125,0.86976 -12.675,2.47494 -19,3.56707 -6.325,1.09212 -14.875,2.45845 -19,3.03628 -4.125,0.57783 -15.07898,1.73009 -24.34218,2.56058 -9.2632,0.83049 -27.4882,1.69891 -40.5,1.92981 -13.0118,0.2309 -29.95782,0.0359 -37.65782,-0.43337 z m 64.76903,-28.65627 c -0.67703,-0.27392 -2.02703,-0.2906 -3,-0.0371 -0.97297,0.25354 -0.41903,0.47766 1.23097,0.49804 1.65,0.0204 2.44606,-0.18707 1.76903,-0.46099 z m 38.51366,-3.85582 c 9.50548,-1.33589 23.91827,-3.78818 32.02842,-5.44955 8.11015,-1.66136 22.0051,-5.02871 30.87767,-7.483 8.87257,-2.45429 21.68478,-6.56782 28.47158,-9.14119 6.7868,-2.57337 15.93964,-6.47599 20.33964,-8.67248 4.4,-2.19649 10.925,-5.89626 14.5,-8.22171 3.575,-2.32546 8.46515,-6.20635 10.86701,-8.62421 2.40185,-2.41785 4.98935,-5.84415 5.75,-7.61398 0.76064,-1.76984 1.38299,-3.44578 1.38299,-3.72432 0,-0.27855 -1.4625,-1.24564 -3.25,-2.1491 -1.7875,-0.90346 -4.2625,-2.56845 -5.5,-3.69999 -1.2375,-1.13154 -2.25,-2.90708 -2.25,-3.94565 0,-1.48397 -1.35823,-0.73604 -6.34309,3.49292 -3.48869,2.95967 -10.12619,8.09384 -14.75,11.40926 -4.6238,3.31542 -11.37706,7.67311 -15.00725,9.68376 -3.63018,2.01066 -9.21313,4.55467 -12.40655,5.65337 -3.19342,1.09869 -7.64826,1.96339 -9.89966,1.92155 -2.2514,-0.0418 -5.66845,-0.6333 -7.59345,-1.31435 -2.2928,-0.81117 -4.11965,-2.42328 -5.29653,-4.67392 -1.23057,-2.35331 -1.63375,-4.69579 -1.2798,-7.43565 0.44111,-3.41465 0.33817,-3.7224 -0.70347,-2.10303 -0.67111,1.04333 -3.73135,5.09333 -6.80054,9 -3.06918,3.90666 -7.78327,9.06528 -10.47574,11.46359 -2.69248,2.39831 -7.60633,6.28094 -10.91967,8.62807 -3.31334,2.34712 -9.84925,6.2952 -14.52425,8.77351 -4.675,2.47831 -13.675,6.40267 -20,8.72079 -6.325,2.31812 -16.45,5.30381 -22.5,6.63486 -11,2.4201 -11,2.4201 -1.5,1.85972 5.225,-0.30821 17.27721,-1.65338 26.78269,-2.98927 z M 592,416.01839 c 0,-0.275 -0.225,-0.5 -0.5,-0.5 -0.275,0 -0.5,0.225 -0.5,0.5 0,0.275 0.225,0.5 0.5,0.5 0.275,0 0.5,-0.225 0.5,-0.5 z m -112.27628,-127.75 c -0.9122,-0.6875 -2.43611,-3.05 -3.38647,-5.25 -1.31658,-3.04778 -1.82493,-7.72817 -2.13542,-19.66095 -0.29239,-11.23685 0.21574,-22.2102 1.79871,-38.84478 1.27841,-13.43395 1.93298,-25.35184 1.55648,-28.33905 -0.35736,-2.83537 -1.86638,-7.39343 -3.35338,-10.12901 -1.78261,-3.2794 -4.0663,-5.74361 -6.70364,-7.23355 -2.2,-1.24287 -5.40592,-2.26717 -7.12427,-2.27621 -1.71835,-0.009 -4.98803,0.64112 -7.26594,1.44481 -2.27791,0.8037 -5.68576,2.639 -7.57298,4.07846 -1.95921,1.49436 -4.13973,4.47213 -5.08253,6.94082 -0.93262,2.44204 -1.35677,5.25134 -0.97462,6.45537 0.37212,1.17246 1.62629,3.01652 2.78703,4.09792 1.28935,1.20121 3.49604,1.96021 5.67187,1.95085 1.95879,-0.008 4.06661,-0.34592 4.68403,-0.75 0.61742,-0.40407 2.71697,-3.91058 4.66566,-7.79224 1.94869,-3.88166 4.20835,-7.60969 5.02146,-8.28452 1.18416,-0.98276 1.79052,-0.91483 3.04666,0.3413 0.86254,0.86254 2.0327,3.24058 2.60037,5.28452 0.56766,2.04394 1.03462,4.4488 1.03768,5.34413 0.003,0.89533 -0.63778,3.14533 -1.4241,5 -0.78633,1.85467 -3.82383,5.71698 -6.75,8.58292 -3.1618,3.09671 -7.14603,5.85561 -9.82032,6.80015 -2.475,0.87414 -7.425,1.63292 -11,1.68617 -3.575,0.0533 -8.49278,-0.51459 -10.92841,-1.26188 -2.43562,-0.74729 -5.89333,-2.82364 -7.68379,-4.6141 -2.32925,-2.32925 -3.45176,-4.56486 -3.94562,-7.85813 -0.37962,-2.53151 -0.1872,-7.1588 0.4276,-10.28287 0.6148,-3.12407 2.77843,-8.93254 4.80807,-12.9077 2.02963,-3.97516 5.59505,-9.40505 7.92314,-12.06641 2.32809,-2.66136 6.86003,-6.23908 10.07097,-7.9505 3.21094,-1.71141 8.90662,-3.64602 12.65707,-4.29913 5.27409,-0.91845 8.21822,-0.91676 12.99498,0.007 3.3968,0.65721 8.70383,2.31889 11.79342,3.69261 3.08959,1.37373 7.43352,4.37551 9.65319,6.67062 2.21966,2.29511 4.97932,5.96626 6.13257,8.15812 1.15324,2.19185 2.09681,4.62935 2.09681,5.41666 0,0.78732 0.24643,1.18505 0.54761,0.88387 0.30119,-0.30119 -0.64113,-5.21369 -2.09404,-10.91667 -1.73712,-6.81854 -2.65867,-13.1413 -2.69134,-18.46524 -0.0407,-6.62765 0.41361,-9.10814 2.50445,-13.67515 1.40478,-3.06842 4.45895,-7.64543 6.78705,-10.17113 2.43897,-2.64597 6.82099,-5.82673 10.3396,-7.50518 3.35867,-1.60216 9.07377,-3.45917 12.70023,-4.12671 4.84988,-0.89273 8.44653,-0.93867 13.60044,-0.17372 3.85379,0.57198 9.58419,2.30195 12.73421,3.84437 3.48709,1.70746 7.81965,5.06436 11.07652,8.58215 2.94205,3.17777 7.14602,9.36774 9.34216,13.75548 2.19613,4.38775 4.53001,10.56464 5.1864,13.72643 0.90931,4.38011 0.91932,6.97353 0.0421,10.89349 -0.73192,3.27054 -2.13934,6.06883 -3.86336,7.6813 -1.49161,1.3951 -4.28701,3.37369 -6.21201,4.39689 -2.66611,1.41712 -5.6443,1.86006 -12.5,1.85911 -7.20822,-0.001 -9.97008,-0.4478 -13.87264,-2.24422 -2.67996,-1.23363 -7.11834,-4.56067 -9.86307,-7.39343 -2.74473,-2.83275 -5.61454,-6.64419 -6.37736,-8.46986 C 522.62412,161.07635 522,158.20024 522,156.51067 c 0,-1.68958 0.89357,-4.8235 1.98571,-6.96427 1.09214,-2.14077 2.382,-4.13724 2.86635,-4.43658 0.48436,-0.29935 1.57739,0.23262 2.42898,1.18215 0.85158,0.94953 3.2227,5.21392 5.26916,9.47642 3.16646,6.5953 4.11037,7.77317 6.33532,7.90552 1.43796,0.0855 3.73948,0.0696 5.11448,-0.0354 1.375,-0.10503 3.5125,-1.32511 4.75,-2.71128 1.2711,-1.42382 2.25,-3.82286 2.25,-5.51422 0,-1.64664 -0.65201,-4.25475 -1.44892,-5.79579 -0.7969,-1.54104 -2.99959,-4.16341 -4.89487,-5.82748 -1.89527,-1.66407 -5.5146,-3.81561 -8.04296,-4.7812 -2.99901,-1.14534 -6.01516,-1.56541 -8.67664,-1.20843 -2.24379,0.30096 -5.83856,1.7112 -7.98836,3.13388 -2.14981,1.42267 -4.83639,4.40503 -5.97019,6.62745 -1.1338,2.22243 -2.50722,6.45215 -3.05204,9.39939 -0.75633,4.09132 -0.47575,10.64416 1.1864,27.70811 1.19735,12.29222 2.22438,30.2245 2.28229,39.8495 0.0877,14.58341 -0.20578,18.44749 -1.76119,23.18511 -1.02657,3.12681 -2.89159,6.64816 -4.1445,7.82521 -1.25292,1.17705 -2.48828,1.76875 -2.74527,1.31488 -0.25698,-0.45386 -0.75257,-2.02107 -1.10132,-3.48267 -0.48068,-2.01455 -1.10315,-2.53481 -2.57291,-2.15046 -1.58528,0.41456 -2.14802,-0.2699 -3.08607,-3.75355 -0.78468,-2.91407 -0.93139,-9.34526 -0.46422,-20.34954 0.41338,-9.73735 0.24644,-20.62897 -0.42288,-27.58898 -0.60825,-6.325 -1.47054,-12.83844 -1.9162,-14.4743 -0.60536,-2.22207 -0.83037,-0.9575 -0.88966,5 -0.0571,5.73718 -1.12378,12.04214 -3.80221,22.4743 -3.72283,14.5 -3.72283,14.5 -4.22946,41.5 -0.27865,14.85 -0.90774,27.77074 -1.39798,28.71276 -0.49024,0.94202 -1.50585,1.47695 -2.25692,1.18874 -0.86612,-0.33236 -1.75587,0.59562 -2.43272,2.53724 -0.58694,1.68369 -1.22956,3.06126 -1.42805,3.06126 -0.19849,0 -1.10724,-0.5625 -2.01943,-1.25 z m 8.18403,-32.25 c -0.0475,-11.55 0.42794,-24.15 1.05644,-28 0.6285,-3.85 2.32972,-11.5 3.78048,-17 1.81231,-6.87067 2.65522,-12.65994 2.69358,-18.5 0.038,-5.78185 -0.52977,-10.18256 -1.77541,-13.76154 -1.114,-3.20077 -3.74872,-7.35957 -6.72693,-10.61821 -3.027,-3.31202 -6.9073,-6.25771 -10.1658,-7.71727 -4.51674,-2.02316 -6.84258,-2.35824 -16.27011,-2.34396 -9.73228,0.0147 -11.63386,0.31511 -16.5,2.60637 -3.025,1.42434 -7.3,4.1689 -9.5,6.09902 -2.2,1.93012 -5.45444,5.93129 -7.23208,8.89149 -1.77765,2.96019 -3.70035,7.8486 -4.27267,10.86313 -0.57231,3.01453 -0.74238,7.50597 -0.37791,9.98097 0.50826,3.45149 1.62029,5.45989 4.77266,8.61972 3.14283,3.15027 5.35702,4.3857 9.40922,5.25 2.91457,0.62165 6.30753,1.13028 7.5399,1.13028 1.23238,0 4.82642,-0.6735 7.98676,-1.49667 3.16034,-0.82316 7.06276,-2.47013 8.67205,-3.65992 1.60928,-1.1898 3.61809,-3.62181 4.46402,-5.40447 0.84593,-1.78266 1.53805,-4.42515 1.53805,-5.87219 0,-1.44705 -0.67504,-4.2466 -1.5001,-6.22123 -1.2364,-2.95913 -1.75413,-3.37942 -2.9452,-2.39092 -0.7948,0.65962 -2.20111,3.52719 -3.12514,6.37236 -0.92403,2.84517 -2.5802,6.16219 -3.68039,7.37116 -1.10018,1.20897 -3.29226,2.48189 -4.87129,2.8287 -1.57903,0.34681 -4.3526,0.14158 -6.1635,-0.45607 -1.82071,-0.60089 -4.05737,-2.38138 -5.00347,-3.98299 -0.941,-1.59299 -1.71091,-4.08234 -1.71091,-5.53189 0,-1.44955 0.90122,-4.40209 2.00271,-6.56119 1.1015,-2.15911 3.914,-5.79552 6.25,-8.08092 2.33601,-2.2854 6.20898,-5.04374 8.60659,-6.12966 2.41387,-1.09327 6.44362,-1.95825 9.02981,-1.93821 2.56878,0.0199 5.79227,0.46267 7.16332,0.98394 1.37105,0.52127 3.88426,2.37097 5.58491,4.11043 1.70065,1.73947 3.82797,5.44118 4.72737,8.22604 1.0214,3.16256 1.63529,8.4686 1.63529,14.13423 0,4.98898 -0.94618,17.4248 -2.10263,27.63517 -1.51693,13.39315 -1.99169,22.60332 -1.70437,33.0643 0.34258,12.47306 0.70266,15.0812 2.57589,18.65775 1.1977,2.28677 2.75217,4.35385 3.45437,4.59353 0.72367,0.247 1.60034,-0.68771 2.02376,-2.15776 0.41086,-1.42644 0.70819,-12.04352 0.66073,-23.59352 z m 19.86544,-11.64791 c 1.52107,-2.95573 2.62478,-7.5169 3.22376,-13.32252 0.54568,-5.28898 0.54818,-13.90209 0.006,-21.48506 -0.49752,-6.96137 -1.64814,-18.70671 -2.55693,-26.10077 -1.07736,-8.76552 -1.49105,-17.61957 -1.18882,-25.44374 0.30505,-7.89739 1.00793,-13.23249 2.05588,-15.605 0.8758,-1.98274 3.14998,-4.97261 5.05375,-6.64414 1.90377,-1.67153 5.13123,-3.59024 7.17214,-4.2638 2.16584,-0.71479 5.60257,-0.96535 8.2548,-0.60182 2.49924,0.34256 6.53685,1.79068 8.97247,3.21805 2.43562,1.42737 6.21988,4.44122 8.40947,6.69744 2.1896,2.25623 4.65825,5.41173 5.4859,7.01224 0.82766,1.6005 1.50483,4.83089 1.50483,7.17865 0,2.34775 -0.57575,5.19056 -1.27944,6.31734 -0.70369,1.12679 -2.33737,2.53073 -3.63039,3.11987 -1.29302,0.58914 -4.06909,1.07117 -6.16903,1.07117 -2.25447,0 -4.82043,-0.78844 -6.26563,-1.92524 -1.34615,-1.05888 -3.69558,-5.10626 -5.22095,-8.99419 -1.52538,-3.88792 -3.1941,-7.32895 -3.70828,-7.64673 -0.51417,-0.31778 -1.60043,1.01515 -2.41391,2.96207 -0.81347,1.94692 -1.47736,5.2418 -1.4753,7.32197 0.002,2.08016 0.88449,5.22661 1.96096,6.99209 1.07647,1.76549 3.73518,4.38658 5.90823,5.82464 2.29807,1.52079 6.6606,3.07878 10.42771,3.72406 4.93849,0.84593 7.79465,0.81447 12.02595,-0.13245 3.05209,-0.68303 6.99831,-2.22835 8.76938,-3.43405 1.77108,-1.20569 4.14049,-3.43452 5.26538,-4.95294 1.40966,-1.90285 2.17332,-4.77232 2.45741,-9.23385 0.31908,-5.01105 -0.12209,-7.9979 -1.95329,-13.22423 -1.8778,-5.35934 -3.63052,-8.04373 -8.50174,-13.02089 -4.0467,-4.13471 -8.13303,-7.16288 -12,-8.89257 -4.43306,-1.98291 -8.07415,-2.74453 -14.92336,-3.12157 -6.78436,-0.37347 -10.53676,-0.0693 -14.94123,1.2111 -3.23487,0.94041 -7.78602,3.02011 -10.11366,4.62157 -2.32764,1.60145 -5.62572,4.60137 -7.32908,6.66647 -1.70335,2.06511 -4.05688,6.22974 -5.23006,9.25474 -1.59703,4.11787 -2.14178,7.76166 -2.16776,14.5 -0.0266,6.90231 0.70511,11.91345 3.13941,21.5 1.74576,6.875 3.62147,15.65 4.16825,19.5 0.54678,3.85 1.00306,16.97569 1.01395,29.16821 0.0109,12.19252 0.30025,22.89904 0.64302,23.79226 0.34276,0.89323 1.12132,1.45802 1.73012,1.25508 0.6088,-0.20293 2.14774,-2.39149 3.41986,-4.86346 z"
       id="path1"
       sodipodi:nodetypes="sssssssssssscsssssssssssssssssssssssssssssssssssssssssssssssssssssssssssssssssssssssssssssssssssssssssssssssssssssssssssssssssssssssssssssssssssssssssssssssscssssssssssssssssssssssssssssssssssssssssssssssssssssssssssssssssssssssssssssssssssssssssssssssssssssssssssssssscsssssssssssssssssscsssssssssssssssssssssscsssssssssssssssssssssssssssssssssssssssssssssssssssssssssssssssssssssssssssssscscssssssssssssssssssssssssssssssssssssssscc" />
  </g>
</svg>
