<?xml version="1.0" encoding="UTF-8" standalone="no"?>
<!-- Created with Inkscape (http://www.inkscape.org/) -->

<svg
   version="1.1"
   id="svg1"
   width="421.08679"
   height="280.25742"
   viewBox="0 0 421.08679 280.25742"
   sodipodi:docname="logo_filled.png"
   inkscape:version="1.4 (86a8ad7, 2024-10-11)"
   xmlns:inkscape="http://www.inkscape.org/namespaces/inkscape"
   xmlns:sodipodi="http://sodipodi.sourceforge.net/DTD/sodipodi-0.dtd"
   xmlns="http://www.w3.org/2000/svg"
   xmlns:svg="http://www.w3.org/2000/svg">
  <defs
     id="defs1" />
  <sodipodi:namedview
     id="namedview1"
     pagecolor="#ffffff"
     bordercolor="#000000"
     borderopacity="0.25"
     inkscape:showpageshadow="2"
     inkscape:pageopacity="0.0"
     inkscape:pagecheckerboard="0"
     inkscape:deskcolor="#d1d1d1"
     inkscape:zoom="1.2953721"
     inkscape:cx="193.76672"
     inkscape:cy="123.13064"
     inkscape:window-width="1304"
     inkscape:window-height="745"
     inkscape:window-x="54"
     inkscape:window-y="-8"
     inkscape:window-maximized="1"
     inkscape:current-layer="g1" />
  <g
     inkscape:groupmode="layer"
     inkscape:label="Image"
     id="g1"
     transform="translate(-48.12318,-9.9993268)">
    <path
       style="fill:#000000"
       d="m 220.10044,286.76413 c -5.19347,-5.51787 -6.26841,-10.44644 -6.84202,-31.37065 -0.45412,-16.56553 0.56051,-38.77431 3.3922,-74.25 0.6133,-7.68349 0.59807,-7.74987 -1.77516,-7.73469 -4.57331,0.0293 -4.7116,0.57551 -5.06101,19.99255 -0.29785,16.55142 -0.54997,18.85946 -2.40235,21.99214 -2.01714,3.41132 -2.22857,3.49965 -8.34425,3.48633 -5.80983,-0.0127 -6.48993,-0.2546 -9.18042,-3.26578 -1.85477,-2.07586 -2.90575,-4.34961 -2.90575,-6.28651 v -3.03441 l -14.79318,0.68885 c -23.24885,1.08261 -33.30844,-1.5507 -42.01756,-10.99898 -2.32675,-2.52423 -4.38505,-4.5895 -4.574,-4.5895 -0.18895,0 -1.14998,2.1375 -2.13562,4.75 -8.19066,21.70987 -26.25081,30.51573 -44.66249,21.77677 C 64.64646,211.20293 54.41599,195.88913 50.38859,175.39348 48.1888,164.19861 47.38729,130.66767 48.90121,113.16945 51.72225,80.563319 59.49046,47.136795 68.27626,29.798865 78.6818,9.264516 94.58369,4.064429 106.7865,17.205609 c 7.22333,7.778787 15.19518,26.044201 15.19518,34.815779 0,9.35376 -4.21998,14.372092 -12.08566,14.372092 -4.25351,0 -5.01566,-0.400911 -9.13582,-4.805692 -6.8001,-7.269859 -7.85633,-12.684203 -5.15873,-26.444308 0.44385,-2.264045 0.18522,-2.75 -1.46361,-2.75 -7.96449,0 -17.10697,21.218213 -21.11307,49 -2.86752,19.88591 -3.82429,58.24385 -1.98298,79.5 1.89093,21.82895 5.67202,33.30238 12.0466,36.55445 6.39546,3.26272 10.32355,2.64108 15.31691,-2.42399 5.08374,-5.15674 8.53487,-12.05889 12.12244,-24.24452 2.19843,-7.46719 2.74054,-11.85877 3.39537,-27.50547 0.42858,-10.24074 1.12543,-19.17967 1.54854,-19.86428 1.20552,-1.95057 8.43944,-0.54131 11.15362,2.17288 3.78216,3.78216 4.94355,15.3044 3.4724,34.44991 -0.65975,8.58595 -0.98166,15.8287 -0.71535,16.09501 0.2663,0.26631 1.7476,-0.40614 3.29176,-1.49431 4.61061,-3.24911 10.31581,-5.84131 19.30758,-8.77256 4.675,-1.52401 8.64368,-2.88375 8.81929,-3.02164 0.67449,-0.52964 -2.35849,-4.44548 -3.44321,-4.44548 -1.24071,0 -2.3407,-3.15453 -2.36243,-6.77498 -0.0216,-3.59625 3.60255,-12.95182 7.17204,-18.5144 4.52176,-7.04654 10.06772,-12.46931 15.07914,-14.74419 4.82766,-2.19146 14.0625,-2.55285 17.40207,-0.68099 2.63944,1.47942 7.88002,7.94201 10.35074,12.76436 2.07384,4.0477 4.98236,17.1287 4.98236,22.40804 0,3.45701 0.0947,3.54216 3.94098,3.54216 2.16754,0 4.17124,-0.37256 4.45266,-0.82791 0.28143,-0.45535 2.3636,-14.06785 4.62706,-30.25 5.72025,-40.895691 9.42532,-56.793897 16.52838,-70.92209 4.6501,-9.249174 9.02026,-13.156117 15.40184,-13.769306 4.28359,-0.411599 5.68048,-0.07862 9.06424,2.16064 7.02339,4.647859 12.65708,14.104162 15.07048,25.296185 1.72924,8.0193 1.52285,27.447784 -0.44373,41.770941 -2.13788,15.57077 -2.06988,16.05636 1.32738,9.4791 3.31087,-6.41 9.20615,-12.14833 14.41605,-14.03226 4.28078,-1.54795 4.43346,-2.13878 1.11466,-4.31334 -2.0559,-1.34708 -2.5,-2.44043 -2.5,-6.154851 0,-2.55849 0.87593,-6.233751 2.02032,-8.476947 1.9023,-3.728818 2.29662,-3.968075 6.75,-4.09561 2.60133,-0.0745 13.72968,-0.411997 24.72968,-0.75 l 20,-0.614552 -0.10236,-10 c -0.0692,-6.756767 -0.97312,-14.035311 -2.78723,-22.44225 -3.1048,-14.388274 -2.8481,-17.43064 1.60159,-18.981809 7.59499,-2.647629 16.18044,-0.658417 19.58691,4.538207 2.70133,4.120927 2.87511,11.353886 0.6931,28.847845 -0.82061,6.579096 -1.49201,13.415629 -1.49201,15.192296 v 3.230303 l 35.75,0.3256 c 19.6625,0.17908 36.54138,0.704683 37.50863,1.168005 4.31288,2.065916 3.02161,8.862829 -2.45663,12.931071 -2.53514,1.882652 -4.65758,2.032582 -35.16243,2.484022 -17.85543,0.26423 -32.92244,0.7635 -33.48224,1.10947 -2.41145,1.49037 -5.40357,77.13873 -3.93508,99.48888 0.63453,9.65738 0.59361,14.9816 -0.12971,16.87629 -1.79597,4.70451 -9.0619,6.14492 -15.50303,3.07336 -5.36698,-2.55933 -5.96617,-5.1768 -5.18077,-22.63117 l 0.68441,-15.21012 -2.97083,6.17964 c -8.61127,17.9123 -16.69575,26.46888 -28.77294,30.45317 -10.8713,3.58646 -18.59643,1.71233 -25.94769,-6.29496 -8.70468,-9.48148 -13.08665,-20.09233 -14.08066,-34.09604 -0.56405,-7.94635 -0.77467,-8.64391 -2.22207,-7.3595 -2.69264,2.38944 -9.14644,3.60627 -19.15783,3.61211 -6.07471,0.004 -10.17225,0.4612 -11.24169,1.25558 -2.45391,1.82278 -3.53337,14.77205 -4.3139,51.75 -0.67149,31.81274 -0.56829,33.65336 3.1834,56.77639 0.49801,3.06942 0.25995,3.39967 -3.76868,5.22804 -6.26532,2.84348 -8.77134,2.52062 -12.6815,-1.63378 z m 88.47814,-89.31283 c 2.8033,-1.60787 7.0783,-5.13056 9.5,-7.82819 8.34838,-9.2996 11.20572,-18.189 10.18494,-31.68611 -0.52059,-6.88343 -0.36725,-8.0079 1.25364,-9.19312 3.47504,-2.54101 12.53427,-0.63865 13.70798,2.87856 0.41074,1.23084 1.00923,-8.24537 2.39866,-37.97896 l 0.66589,-14.25 -14.904,0.006 c -15.14329,0.006 -21.25483,0.90482 -23.35568,3.43619 -0.94315,1.13642 -0.53062,1.71736 2.14176,3.01606 4.54218,2.20737 5.88845,3.41223 8.98609,8.04217 6.82034,10.19414 7.54238,25.51507 1.89286,40.16476 -4.93483,12.79642 -12.73243,18.82494 -27.72652,21.43605 l -6.60824,1.15077 0.58827,6.29961 c 1.52373,16.31725 9.10481,21.48666 21.27435,14.50663 z m -130.31133,-8.65391 c 11.3156,-2.14988 12.3992,-2.81616 13.19341,-8.11232 0.36908,-2.46119 0.44722,-4.69872 0.17364,-4.9723 -0.77962,-0.77963 -14.11495,1.46001 -25.65262,4.30831 -10.26829,2.53492 -23.84758,7.85816 -22.77692,8.92881 1.1186,1.11861 13.54955,2.20722 20.27692,1.7757 3.85,-0.24695 10.50351,-1.11464 14.78557,-1.9282 z m 93.89538,-46.40391 c 0.23086,-2.53253 -0.0551,-3.42135 -1.03451,-3.21548 -2.73716,0.57535 -5.15654,-1.01088 -9.10441,-5.96919 -3.87296,-4.86425 -4.04203,-5.37582 -4.04203,-12.2306 0,-3.9347 1.15994,-14.11342 2.57763,-22.61937 2.01873,-12.111989 2.49281,-17.900431 2.18641,-26.695623 -0.21518,-6.176645 -0.70189,-11.54092 -1.08158,-11.92061 -1.30089,-1.30089 -5.96546,4.150514 -8.68574,10.150873 -3.2034,7.066012 -4.89005,14.024521 -8.96832,37 C 239.94874,129.77357 238.02205,143.75281 238,150.5 l -0.0183,5.60652 9.25,0.68569 c 5.0875,0.37712 11.05,1.15693 13.25,1.73289 4.39246,1.14996 8.43163,4.33224 8.62176,6.79269 0.11556,1.49549 2.37996,-15.47293 3.05919,-22.92431 z m -79.94626,14.57686 c 0.87845,-1.28758 0.79651,-17.8177 -0.10944,-22.07686 -0.9381,-4.41036 -4.0953,-4.43708 -7.93218,-0.0671 -3.12483,3.55899 -6.78605,13.40741 -7.85098,21.11856 l -0.55951,4.05144 7.85871,-0.97458 c 4.32229,-0.53602 8.18932,-1.45917 8.5934,-2.05144 z m 103.09412,1.05911 c 6.87109,-2.87092 13.33565,-14.23695 14.36463,-25.25597 0.89316,-9.56465 -2.1408,-12.06027 -7.72142,-6.35137 -3.14261,3.21484 -6.20741,8.65075 -8.66804,15.37413 -1.62994,4.4536 -4.21114,14.33925 -4.26836,16.34724 -0.0464,1.62673 2.22549,1.58557 6.29319,-0.11403 z m 92.67119,61.24022 c -12.0803,-3.60929 -23,-20.38494 -23,-35.33429 0,-11.56629 4.55376,-30.09638 10.71963,-43.62018 6.98162,-15.31302 14.19187,-22.88623 23.24569,-24.41586 12.66915,-2.14044 25.26768,10.67567 28.2231,28.7105 0.65647,4.006 1.30896,7.44747 1.44998,7.64771 0.14102,0.20023 1.77211,-0.57269 3.62464,-1.71762 1.85254,-1.14493 5.02615,-2.28732 7.05248,-2.53865 3.2281,-0.40039 3.7583,-0.16186 4.28247,1.9266 0.32903,1.31096 1.16931,2.85752 1.8673,3.43679 0.97532,0.80945 1.41281,0.18241 1.89008,-2.70898 1.44513,-8.75478 1.8756,-58.838437 0.71281,-82.93218 -0.6681,-13.843484 -0.90981,-27.203328 -0.53713,-29.688544 0.58104,-3.874625 1.11116,-4.669712 3.71985,-5.579106 4.4006,-1.534058 9.67896,0.206663 14.18791,4.678951 l 3.78948,3.758669 -0.52182,20 c -2.90211,111.23204 -3.85632,143.08245 -4.47889,149.5 l -0.72758,7.5 -4.41979,0.31579 c -6.32936,0.45224 -8.50579,-0.34267 -12.51257,-4.57004 -3.34881,-3.53318 -3.55078,-4.13152 -3.55897,-10.54357 -0.005,-3.7388 0.63759,-12.7388 1.42746,-20 0.78987,-7.2612 1.63432,-15.33723 1.87655,-17.94673 l 0.44042,-4.74454 -5.12655,3.66962 c -9.66292,6.91678 -12.25178,10.42357 -13.89331,18.81947 -0.3226,1.65 -2.01828,6.95455 -3.76818,11.78789 -2.43894,6.73654 -4.33749,10.05259 -8.13326,14.20577 -7.96161,8.71127 -19.28603,12.93579 -27.8318,10.38253 z m 7.87481,-17.31145 c 5.02069,-2.5963 11.60951,-10.96468 13.52076,-17.17254 0.59215,-1.92333 0.1755,-2.15666 -4.7608,-2.66613 -7.01641,-0.72416 -10.51281,-2.61228 -16.30579,-8.80545 -5.60894,-5.99641 -5.53472,-6.08197 -7.36979,8.49701 -0.93753,7.44839 -0.95377,10.65708 -0.0689,13.61055 2.09468,6.99144 8.60936,9.83328 14.98451,6.53656 z m 16.92519,-37.76474 c 2.17108,-2.17108 0.68733,-26.15238 -1.91944,-31.02318 -1.96041,-3.66305 -9.27846,-1.38915 -13.66175,4.24503 -6.59023,8.47093 -5.2852,23.93593 2.28119,27.03279 3.07836,1.25995 11.95537,1.08999 13.3,-0.25464 z"
       id="path1" />
  </g>
</svg>
