<?xml version="1.0" encoding="UTF-8" standalone="no"?>
<!-- Created with Inkscape (http://www.inkscape.org/) -->

<svg
   version="1.1"
   id="svg1"
   width="420.83133"
   height="280.29999"
   viewBox="0 0 420.83133 280.29999"
   sodipodi:docname="vector_text.svg"
   inkscape:version="1.4 (86a8ad7, 2024-10-11)"
   xmlns:inkscape="http://www.inkscape.org/namespaces/inkscape"
   xmlns:sodipodi="http://sodipodi.sourceforge.net/DTD/sodipodi-0.dtd"
   xmlns="http://www.w3.org/2000/svg"
   xmlns:svg="http://www.w3.org/2000/svg">
  <defs
     id="defs1" />
  <sodipodi:namedview
     id="namedview1"
     pagecolor="#ffffff"
     bordercolor="#000000"
     borderopacity="0.25"
     inkscape:showpageshadow="2"
     inkscape:pageopacity="0.0"
     inkscape:pagecheckerboard="0"
     inkscape:deskcolor="#d1d1d1"
     inkscape:zoom="0.63146779"
     inkscape:cx="323.05686"
     inkscape:cy="-65.7199"
     inkscape:window-width="1304"
     inkscape:window-height="745"
     inkscape:window-x="54"
     inkscape:window-y="-8"
     inkscape:window-maximized="1"
     inkscape:current-layer="g1" />
  <g
     inkscape:groupmode="layer"
     inkscape:label="Image"
     id="g1"
     transform="translate(-273.14973,-559.20044)">
    <path
       style="fill:#000000"
       d="m 445.41229,835.75036 c -1.69824,-2.05258 -3.56206,-4.63197 -4.14181,-5.73197 -0.57976,-1.1 -1.55279,-5.2362 -2.16229,-9.19156 -0.60951,-3.95535 -1.02793,-15.43035 -0.92984,-25.5 0.17835,-18.30844 0.17835,-18.30844 0.83995,4.19156 0.53935,18.34254 1.01452,23.51627 2.57165,28 1.91005,5.5 1.91005,5.5 6.07631,5.41988 2.29144,-0.0441 5.32894,-0.84195 6.75,-1.77306 1.73368,-1.13595 2.58329,-2.5901 2.58237,-4.41988 -7.5e-4,-1.49982 -0.67513,-6.55194 -1.49863,-11.22694 -1.10808,-6.29059 -1.49147,-16.16797 -1.47495,-38 0.0123,-16.225 0.42543,-34.70311 0.91813,-41.06246 0.49271,-6.35935 1.19454,-13.15471 1.55962,-15.1008 0.6638,-3.53835 0.6638,-3.53835 12.37543,-4.16808 6.4414,-0.34635 13.26641,-1.14759 15.1667,-1.78054 1.90029,-0.63295 4.13007,-1.79422 4.95507,-2.58059 1.32885,-1.26663 1.2718,-1.6093 -0.5,-3.00318 -1.75158,-1.37798 -1.77247,-1.4946 -0.16821,-0.93889 1.00748,0.349 2.01998,0.63454 2.25,0.63454 0.23001,0 0.41821,1.07685 0.41821,2.39301 0,1.31615 0.7118,2.66615 1.58179,3 0.86998,0.33384 1.76998,0.60699 2,0.60699 0.23001,0 0.48439,-1.6875 0.56528,-3.75 0.0809,-2.0625 0.48493,1.27207 0.89787,7.41017 0.41294,6.13809 1.22715,13.38129 1.80935,16.096 0.5822,2.71471 1.99316,7.43382 3.13547,10.48692 1.14232,3.0531 3.89293,7.61418 6.11248,10.13572 2.91617,3.31294 5.36022,4.97801 8.8112,6.00284 3.48855,1.03599 6.08386,1.17382 9.62959,0.51141 2.66966,-0.49875 6.90212,-1.88332 9.40545,-3.07682 2.50334,-1.19351 7.48076,-5.12791 11.06095,-8.74313 4.2727,-4.31451 7.93303,-9.32201 10.65249,-14.57311 2.27868,-4.4 4.87119,-10.475 5.76112,-13.5 0.88993,-3.025 2.0616,-8.27588 2.6037,-11.66862 0.64771,-4.05368 0.64755,-7.05788 -4.7e-4,-8.76229 -0.54236,-1.42652 -2.12015,-3.11038 -3.50619,-3.7419 -1.91161,-0.87099 -3.15184,-0.86038 -5.13663,0.0439 -2.61654,1.19218 -2.61654,1.19218 -1.90379,10.69893 0.63466,8.46517 0.46082,10.22037 -1.58671,16.02023 -1.3172,3.73114 -4.24703,8.93099 -6.85872,12.17284 -2.5076,3.11264 -6.35364,6.87889 -8.54675,8.36945 -2.19311,1.49055 -5.11248,2.98482 -6.48748,3.32059 -1.59742,0.39008 -1.05588,-0.16226 1.5,-1.52992 2.2,-1.17722 5.72902,-3.77904 7.84226,-5.78183 2.11325,-2.00279 5.16897,-5.54899 6.79049,-7.88045 1.62152,-2.33146 3.68002,-6.15646 4.57444,-8.5 1.13312,-2.96894 1.65149,-7.72194 1.70952,-15.67477 0.0833,-11.41378 0.0833,-11.41378 2.8762,-12.34763 1.5361,-0.51362 3.91256,-0.65284 5.28102,-0.30938 1.36846,0.34346 3.30077,1.96078 4.29401,3.59404 0.99325,1.63327 2.10429,2.67119 2.46898,2.3065 0.3647,-0.36469 0.71528,-4.07558 0.77908,-8.24641 0.0638,-4.17083 0.34311,-6.68515 0.62069,-5.58736 0.27759,1.09778 -0.28033,17.39056 -1.2398,36.20618 -0.95947,18.81562 -1.49,34.87343 -1.17894,35.68402 0.31839,0.82972 2.52399,1.7675 5.04683,2.14582 3.3501,0.50238 5.20664,0.24353 7.35483,-1.02544 2.87355,-1.69744 2.87355,-1.69744 2.94152,-41.852 0.0374,-22.085 0.61077,-48.25455 1.27418,-58.15455 0.66341,-9.9 1.58898,-18.39212 2.05682,-18.87137 0.46783,-0.47925 16.52349,-1.21236 35.67924,-1.62913 19.15575,-0.41677 35.72863,-1.09262 36.82863,-1.5019 1.1,-0.40928 3.01026,-1.92618 4.24503,-3.37088 1.53753,-1.79893 2.2466,-2.14526 2.25,-1.09896 0.003,0.84026 0.89561,2.29035 1.98417,3.2224 1.08857,0.93206 1.73881,2.32111 1.44499,3.08679 -0.29382,0.76568 -1.57582,1.86673 -2.84888,2.44678 -1.27307,0.58005 -4.41472,1.36956 -6.98144,1.75446 -2.56671,0.3849 -18.92006,0.98377 -36.34077,1.33082 -31.67402,0.63099 -31.67402,0.63099 -32.34716,3.9294 -0.37023,1.81413 -1.17648,15.53913 -1.79168,30.5 -0.61519,14.96087 -1.35287,33.3722 -1.6393,40.91406 -0.28642,7.54186 -0.008,18.96623 0.61923,25.38748 0.85133,8.71858 0.85238,12.63502 0.004,15.46616 -0.90628,3.02487 -1.84021,4.02362 -4.62056,4.94122 -1.92973,0.63687 -4.90181,0.83881 -6.66045,0.45255 -1.74666,-0.38364 -4.72393,-2.33155 -6.61614,-4.3287 -3.44039,-3.63118 -3.44039,-3.63118 -2.81387,-19.63118 0.62652,-16 0.62652,-16 -1.94845,-10.12232 -1.41624,3.23272 -3.72759,7.73272 -5.13633,10 -1.40875,2.26727 -4.15274,6.23641 -6.09777,8.8203 -1.94502,2.5839 -5.90368,6.32839 -8.79701,8.32111 -2.89334,1.99271 -7.65622,4.26078 -10.58418,5.04014 -2.92797,0.77937 -6.44858,1.41986 -7.82358,1.42332 -1.375,0.003 -4.3,-0.48001 -6.5,-1.07437 -2.79539,-0.75522 -5.71424,-2.86462 -9.69224,-7.00438 -3.13073,-3.25804 -7.07113,-8.73173 -8.75644,-12.16376 -1.68531,-3.43202 -3.72849,-9.39004 -4.5404,-13.24004 -0.81191,-3.85 -1.48401,-9.34733 -1.49356,-12.21628 -0.0174,-5.21627 -0.0174,-5.21627 -3.63903,-3.07944 -2.99895,1.76943 -5.82208,2.23647 -16.41897,2.71628 -7.03852,0.31869 -13.05421,0.83738 -13.3682,1.15264 -0.314,0.31526 -1.02643,4.81526 -1.58318,10 -0.55676,5.18474 -1.30111,24.0518 -1.65411,41.9268 -0.54022,27.35467 -0.38593,34.08317 0.97454,42.5 0.889,5.5 1.67648,11.35 1.74994,13 0.0735,1.65 0.0859,3.51364 0.0276,4.14142 -0.0583,0.62778 -1.91507,1.86528 -4.1262,2.75 -2.21113,0.88472 -5.02363,1.60047 -6.25,1.59055 -1.34233,-0.0109 -3.45865,-1.50333 -5.31747,-3.75 z m -6.24763,-64.23197 c -0.0592,-3.025 0.54167,-13.825 1.33534,-24 0.79367,-10.175 1.45585,-19.99101 1.47151,-21.81336 0.027,-3.14055 -0.14102,-3.29702 -3.22151,-3 -3.25,0.31336 -3.25,0.31336 -3.77771,19.31336 -0.42164,15.18077 -0.86648,19.62893 -2.21302,22.12882 -0.92691,1.72085 -2.41375,3.40835 -3.30407,3.75 -0.89033,0.34165 -3.12768,0.62118 -4.97189,0.62118 -1.84421,0 -4.50741,-0.43887 -5.91821,-0.97525 -1.41081,-0.53639 -2.5651,-1.64556 -2.5651,-2.46482 0,-0.81926 -0.9,-1.97123 -2,-2.55993 -1.31887,-0.70584 -2,-2.09383 -2,-4.07553 0,-3.00516 0,-3.00516 -15.25,-2.33325 -10.6529,0.46936 -17.03156,0.29941 -21.15997,-0.56377 -3.25048,-0.67962 -7.87249,-2.07691 -10.27114,-3.10509 -2.39865,-1.02818 -6.64988,-4.15812 -9.44718,-6.95541 -2.7973,-2.7973 -5.19557,-4.94672 -5.32949,-4.77648 -0.13392,0.17024 -1.94548,3.88615 -4.0257,8.25759 -2.47636,5.2039 -5.58993,9.75579 -9.01803,13.18388 -4.06302,4.06302 -6.52892,5.61174 -11.00866,6.91404 -3.4819,1.01221 -7.80014,1.50643 -10.88134,1.24537 -2.80967,-0.23807 -7.927,-1.70266 -11.37184,-3.25465 -4.51495,-2.03411 -8.0043,-4.67075 -12.5,-9.44534 -3.43016,-3.64293 -7.7102,-9.4 -9.51121,-12.79349 -1.801,-3.39348 -4.1635,-9.64573 -5.25,-13.89388 -1.08649,-4.24816 -1.92933,-8.66444 -1.87297,-9.81396 0.0564,-1.14952 0.65257,0.38497 1.32491,3.40997 0.67235,3.025 1.81308,7.3 2.53495,9.5 0.72188,2.2 2.60686,6.58693 4.18885,9.74873 1.58198,3.16181 5.00764,7.82234 7.61258,10.35674 2.60493,2.5344 6.97747,5.74511 9.71675,7.13492 3.0846,1.565 7.36624,2.71842 11.24773,3.02999 4.59023,0.36846 7.53882,0.0218 11.01948,-1.29546 2.61376,-0.98919 6.55228,-3.2656 8.75228,-5.05869 2.2,-1.79309 5.54048,-5.80831 7.42329,-8.92272 1.8828,-3.1144 4.64829,-9.12427 6.14551,-13.35526 1.49723,-4.23098 3.44425,-12.23415 4.32672,-17.7848 C 350.27798,712.32118 351,702.24529 351,695.48097 c 0,-6.76432 -0.49619,-15.14812 -1.10265,-18.63067 -1.0918,-6.26955 -1.13507,-6.33191 -4.39302,-6.33191 -2.07788,0 -3.51402,0.58287 -3.89734,1.58178 -0.33385,0.86999 -0.6186,5.93249 -0.63279,11.25 -0.0142,5.31752 -0.46089,14.14317 -0.99266,19.61255 -0.53177,5.46938 -1.89367,13.34438 -3.02643,17.5 -1.13277,4.15562 -3.66847,10.82581 -5.63489,14.82265 -2.25701,4.58749 -4.96405,8.3669 -7.34167,10.25 -2.0715,1.64066 -4.0404,2.98302 -4.37534,2.98302 -0.33493,0 1.11707,-1.55937 3.22667,-3.46527 2.1096,-1.9059 5.24918,-6.2934 6.97684,-9.75 1.72766,-3.4566 4.32034,-10.33473 5.76152,-15.28473 2.19226,-7.52972 2.74949,-12.03871 3.41101,-27.6008 0.43487,-10.23043 1.29196,-19.53746 1.90465,-20.68227 0.61269,-1.14482 2.00537,-2.3644 3.09486,-2.71019 1.08948,-0.34579 2.63169,-0.26377 3.42712,0.18227 0.79543,0.44604 2.62773,2.5527 4.07179,4.68145 1.941,2.86133 2.91123,6.08355 3.72126,12.35857 0.80455,6.23263 0.79084,12.1268 -0.0516,22.18177 C 354.51629,715.96071 354,723.13841 354,724.37964 c 0,1.27513 0.4424,1.98336 1.01707,1.62819 0.5594,-0.34572 -0.1156,1.04052 -1.5,3.08053 -1.38439,2.04002 -2.51707,5.04132 -2.51707,6.66957 0,2.00868 1.04487,4.00217 3.25,6.20066 1.7875,1.78211 5.82973,4.20288 8.98274,5.3795 3.153,1.17662 9.678,2.65797 14.5,3.29188 7.26225,0.95471 10.92036,0.8724 21.30984,-0.47951 6.89841,-0.89764 13.06898,-1.63207 13.71237,-1.63207 0.83263,0 0.99871,1.8321 0.57623,6.35644 -0.59358,6.35643 -0.59358,6.35643 2.68684,7.5 1.80424,0.62895 4.29827,1.14356 5.54231,1.14356 1.27582,0 3.34142,-1.28296 4.73818,-2.94292 1.60165,-1.90345 2.86927,-5.19954 3.58889,-9.33191 0.61193,-3.51395 1.1126,-12.53964 1.1126,-20.05709 0,-13.66808 0,-13.66808 6,-13.66808 6,0 6,0 5.90931,8.25 -0.0499,4.5375 -0.88859,17.925 -1.86382,29.75 -0.97522,11.825 -1.82159,19.025 -1.88083,16 z m 173.54742,-3.16091 c -2.0978,-0.58467 -6.19022,-3.25128 -9.17201,-5.97647 -2.96125,-2.70641 -6.546,-6.9034 -7.9661,-9.32662 -1.42011,-2.42323 -3.31168,-7.24765 -4.2035,-10.72094 -1.14628,-4.46434 -1.45199,-8.51305 -1.04314,-13.81506 0.31809,-4.125 1.26064,-10.425 2.09456,-14 0.83391,-3.575 2.606,-9.65 3.93797,-13.5 1.33196,-3.85 3.39906,-9.25 4.59355,-12 1.19449,-2.75 3.76967,-7.475 5.72262,-10.5 1.95295,-3.025 5.42317,-6.93705 7.71159,-8.69345 2.28841,-1.75639 6.17487,-3.72433 8.63657,-4.37321 3.35798,-0.88512 5.50234,-0.89901 8.58606,-0.0556 2.26063,0.61827 6.21943,2.9807 8.79733,5.24986 2.5779,2.26916 5.75764,6.23837 7.06609,8.82049 1.30846,2.58211 3.08716,7.42757 3.95267,10.76769 0.86551,3.34012 1.57366,7.24549 1.57366,8.6786 0,1.43311 0.49152,2.60566 1.09227,2.60566 0.60075,0 2.23644,-0.9 3.63486,-2 1.55285,-1.22147 4.05678,-2 6.43248,-2 3.18715,0 4.05493,0.43409 4.80346,2.40286 0.50246,1.32157 1.34016,2.66651 1.86156,2.98875 0.52139,0.32224 1.22365,-0.42155 1.56056,-1.65286 0.33691,-1.23131 0.89596,-16.18875 1.24232,-33.23875 0.38877,-19.13751 0.18774,-39.1959 -0.52534,-52.41816 -0.6353,-11.77998 -0.85612,-24.71748 -0.4907,-28.75 0.66439,-7.33184 0.66439,-7.33184 4.27646,-7.32627 1.98664,0.003 5.21052,0.44964 7.16419,0.99237 2.52915,0.70261 4.51448,2.3521 6.89377,5.72763 3.34166,4.74085 3.34166,4.74085 2.71102,22.25764 -0.34685,9.63423 -1.09391,33.04179 -1.66013,52.01679 -0.56622,18.975 -1.42748,49.8 -1.91391,68.5 -0.56613,21.76424 -1.3152,35.16959 -2.08147,37.25 -0.89082,2.41859 -1.80473,3.25 -3.57247,3.25 -1.30649,0 -4.41026,-0.9886 -6.89728,-2.19689 -2.48702,-1.20829 -4.77953,-3.00876 -5.09448,-4.00106 -0.31494,-0.9923 -1.44214,-2.26953 -2.50489,-2.8383 -1.66814,-0.89276 -1.91876,-2.08871 -1.83338,-8.74894 0.0544,-4.24315 0.44569,-10.18981 0.86954,-13.21481 0.5811,-4.1472 0.74125,-2.31509 0.65111,7.44869 -0.11955,12.9487 -0.11955,12.9487 3.88045,15.25739 2.2,1.26979 5.125,2.19287 6.5,2.05131 1.96565,-0.20238 2.75564,-1.11235 3.69605,-4.25739 0.78112,-2.61233 1.76682,-25.33555 2.8413,-65.5 0.90488,-33.825 1.8941,-72.14236 2.19827,-85.14969 0.55304,-23.64968 0.55304,-23.64968 -2.67503,-25.31898 -1.77544,-0.91812 -5.10289,-1.75076 -7.39433,-1.85032 -4.16626,-0.18101 -4.16626,-0.18101 -3.80698,46.31899 0.21755,28.15583 -0.10042,54.19271 -0.806,66 -0.64091,10.725 -1.78793,24 -2.54892,29.5 -1.38363,10 -1.38363,10 -0.91171,2 0.25957,-4.4 0.72349,-9.69657 1.03094,-11.77015 0.55901,-3.77014 0.55901,-3.77014 -2.82437,-1.7739 -1.86086,1.09794 -5.28874,3.62717 -7.61752,5.62052 -2.32878,1.99334 -4.84448,4.8166 -5.59045,6.2739 -0.74597,1.45729 -2.31254,6.15445 -3.48128,10.43813 -1.16874,4.28368 -3.42503,10.65571 -5.01398,14.16007 -1.58895,3.50436 -4.7844,8.42782 -7.10099,10.94103 -2.31659,2.5132 -6.52566,5.69893 -9.35349,7.07938 -2.82783,1.38046 -7.16651,2.716 -9.64151,2.96787 -2.475,0.25187 -6.20456,-0.0171 -8.28792,-0.59776 z m 14.08921,-8.42736 c 2.85668,-1.42355 6.81054,-4.46105 8.78635,-6.75 1.97581,-2.28895 4.87763,-6.68837 6.44849,-9.77649 1.57087,-3.08811 4.09094,-10.21963 5.60016,-15.84782 1.90605,-7.10803 3.52803,-11.043 5.31125,-12.88524 1.41196,-1.4587 5.40517,-4.81156 8.87379,-7.45081 4.13364,-3.14525 6.19547,-5.38484 5.98408,-6.5 -0.18807,-0.99215 -1.43762,-1.8306 -2.99756,-2.01139 -1.47128,-0.17051 -4.05493,0.40355 -5.74145,1.27568 -1.68652,0.87213 -3.0664,1.95191 -3.0664,2.3995 0,0.44759 -1.14617,1.33604 -2.54705,1.97432 -1.40088,0.63829 -2.90904,1.16052 -3.35147,1.16052 -0.44243,0 -1.06991,-3.7125 -1.39439,-8.25 -0.32449,-4.5375 -1.4563,-11.02123 -2.51513,-14.40828 -1.05883,-3.38705 -2.92307,-7.55973 -4.14277,-9.27264 -1.21969,-1.7129 -3.9618,-4.00417 -6.09357,-5.09172 -2.21221,-1.12859 -5.86709,-1.97736 -8.51465,-1.97736 -2.55129,0 -6.13273,0.70896 -7.95876,1.57546 -1.82602,0.86651 -5.19306,3.45401 -7.48231,5.75 -2.42998,2.43714 -5.97364,7.92023 -8.51457,13.17454 -2.39377,4.95 -5.27454,11.86336 -6.40171,15.36302 -1.12717,3.49967 -2.75492,9.7787 -3.61723,13.95341 -0.86231,4.17471 -1.62334,11.43635 -1.69119,16.13697 -0.0843,5.84394 0.44409,10.24484 1.67106,13.91693 1.11866,3.34795 3.28681,6.86273 5.75737,9.3333 2.17963,2.17963 5.38798,4.58287 7.12967,5.34052 1.74168,0.75766 5.89085,1.39518 9.22036,1.41671 4.56339,0.0295 7.33228,-0.59803 11.24763,-2.54913 z m -17.82998,-8.03568 c -1.39078,-0.8639 -3.62756,-3.21442 -4.97062,-5.22339 -1.94458,-2.90873 -2.52179,-5.26194 -2.83407,-11.55414 -0.21568,-4.3458 0.15538,-11.29558 0.82458,-15.44393 0.6692,-4.14836 1.55269,-8.45066 1.96331,-9.56067 0.64178,-1.73489 1.32356,-1.1046 4.85693,4.49008 2.86307,4.53336 5.26013,7.07174 7.89945,8.36518 2.53179,1.24074 6.57119,1.96125 12.17327,2.17136 4.61129,0.17295 8.61302,0.5433 8.89273,0.82301 0.2797,0.27971 -0.51445,3.33183 -1.76478,6.7825 -1.25034,3.45067 -3.77163,8.5435 -5.60287,11.3174 -1.85402,2.80842 -5.06937,6.02131 -7.25554,7.25 -2.21107,1.2427 -5.61379,2.19492 -7.78985,2.17994 -2.12512,-0.0146 -5.00176,-0.73344 -6.39254,-1.59734 z m 13.62282,-2.00449 c 2.13027,-1.44564 4.45117,-3.35814 5.15756,-4.25 0.70639,-0.89186 2.35451,-3.42156 3.66249,-5.62156 1.30798,-2.2 2.68019,-5.0125 3.04937,-6.25 0.58813,-1.97146 0.31116,-2.25 -2.23723,-2.25 -1.59965,0 -5.08394,-0.65473 -7.74286,-1.45494 -3.45473,-1.03972 -6.46608,-3.0696 -10.55188,-7.11277 -5.71748,-5.65782 -5.71748,-5.65782 -6.79296,-0.64304 -0.59151,2.75812 -1.37287,8.58075 -1.73635,12.93916 -0.52999,6.35512 -0.32781,8.62624 1.02099,11.46862 0.92501,1.94933 2.6707,4.022 3.87929,4.60592 1.2086,0.58393 3.59715,1.09214 5.3079,1.12937 1.80167,0.0392 4.74019,-1.03829 6.98368,-2.56076 z m 1.47697,-35.12312 c -1.88589,-0.96164 -4.73369,-3.38233 -6.32844,-5.37929 -1.59474,-1.99697 -3.3035,-5.37197 -3.79724,-7.5 -0.49374,-2.12804 -0.90844,-5.80952 -0.92156,-8.18108 -0.0144,-2.59645 0.97261,-6.37597 2.48082,-9.5 1.37757,-2.85344 3.68099,-6.03687 5.11869,-7.07429 1.43771,-1.03742 4.50409,-2.09925 6.81418,-2.35963 3.75969,-0.42378 4.47857,-0.14255 6.855,2.68168 1.46017,1.73531 3.12362,4.89598 3.69656,7.02372 0.57294,2.12774 1.46672,8.32926 1.98618,13.78115 0.54794,5.75078 0.57756,11.13992 0.0706,12.83592 -0.68394,2.28783 -0.89262,1.2258 -0.95989,-4.88507 -0.0473,-4.29465 -0.58463,-11.04465 -1.19414,-15 -0.6095,-3.95535 -1.52533,-7.97905 -2.03518,-8.94155 -0.53691,-1.01359 -2.07693,-1.75 -3.65968,-1.75 -1.50297,0 -4.35053,1.09935 -6.3279,2.44301 -2.05259,1.39477 -4.51213,4.39365 -5.73214,6.98911 C 618.6283,693.15994 618,696.44034 618,701.10749 c 0,6.18494 0.21907,6.82997 3.4,10.0109 3.2004,3.20039 3.80214,3.4009 10.25,3.41531 4.7918,0.0107 6.3993,0.30658 5.35,0.98469 -0.825,0.53315 -3.3,0.97556 -5.5,0.98313 -2.2,0.008 -5.543,-0.77304 -7.4289,-1.73469 z m -99.80207,35.05857 c 0.97297,-0.25355 2.32297,-0.23687 3,0.0371 0.67703,0.27392 -0.11903,0.48137 -1.76903,0.46099 -1.65,-0.0204 -2.20394,-0.2445 -1.23097,-0.49804 z m -219.05198,-2.91637 c -1.80562,-1.42294 -4.37219,-4.73668 -5.70348,-7.36386 -1.33129,-2.62719 -3.35043,-8.32047 -4.48697,-12.65174 -1.13654,-4.33127 -2.60137,-12.15004 -3.25518,-17.37504 -0.65381,-5.225 -1.16967,-20.75 -1.14636,-34.5 0.0233,-13.75 0.59079,-30.4 1.26108,-37 0.67028,-6.6 1.88028,-16.275 2.68889,-21.5 0.80861,-5.225 2.40566,-12.425 3.54901,-16 1.14336,-3.575 3.47566,-9.34369 5.18291,-12.81931 1.70725,-3.47563 4.8129,-7.86313 6.90145,-9.75 2.16937,-1.9599 4.85803,-3.43069 6.27143,-3.43069 1.52489,0 3.09254,0.94391 4.08615,2.46035 1.3322,2.0332 1.47221,3.81279 0.80644,10.25 -0.4431,4.28431 -0.66657,9.36465 -0.49659,11.28965 0.16998,1.925 1.17656,4.91785 2.23685,6.65077 1.06028,1.73293 2.63049,3.42043 3.48934,3.75 0.85886,0.32958 3.28475,0.59923 5.39087,0.59923 3.03544,0 4.35779,-0.62806 6.37843,-3.02944 1.402,-1.66619 2.84671,-4.61584 3.21045,-6.55477 0.36375,-1.93893 0.35942,-5.80151 -0.01,-8.5835 -0.36904,-2.782 -1.82489,-7.94056 -3.23521,-11.46348 -1.4473,-3.6153 -4.53146,-8.59336 -7.08062,-11.42863 -2.48401,-2.76282 -5.78553,-5.67961 -7.33669,-6.48175 -1.55117,-0.80214 -4.71561,-1.45843 -7.0321,-1.45843 -2.6651,0 -5.74662,0.89946 -8.39125,2.44932 -2.2987,1.34712 -5.98237,4.83726 -8.18594,7.75587 -2.20356,2.9186 -4.73163,6.70883 -5.61792,8.42272 -0.88628,1.71389 -3.0106,6.63838 -4.7207,10.9433 -1.7101,4.30493 -4.38785,12.80001 -5.95056,18.87796 -1.56272,6.07796 -3.77122,16.67583 -4.90779,23.55083 -1.13657,6.875 -2.5712,17.45 -3.18806,23.5 -0.61686,6.05 -1.45443,20.675 -1.86126,32.5 -0.73969,21.5 -0.73969,21.5 -0.90186,3.17209 -0.0892,-10.08035 0.32542,-23.80535 0.92138,-30.5 0.59596,-6.69465 2.16815,-18.64818 3.49377,-26.56339 1.32561,-7.91522 3.75682,-19.70042 5.40269,-26.18935 1.64586,-6.48893 4.38465,-15.31284 6.08619,-19.6087 1.70155,-4.29586 4.42511,-10.14579 6.05235,-12.99984 1.62725,-2.85405 5.04706,-7.24811 7.59958,-9.76457 3.04408,-3.00109 6.26574,-5.05791 9.36302,-5.9777 3.14991,-0.93543 5.9276,-1.13041 8.34302,-0.58564 1.99153,0.44916 4.71391,1.53278 6.04974,2.40805 1.33583,0.87527 3.60452,2.83287 5.04154,4.35022 1.43703,1.51736 4.35792,5.68383 6.49089,9.25883 2.13296,3.575 5.02911,9.95434 6.43588,14.17631 1.40678,4.22198 2.54789,9.39698 2.53581,11.5 -0.0121,2.10303 -0.87382,5.69988 -1.91499,7.993 -1.04116,2.29313 -2.80169,4.65563 -3.91229,5.25 -1.1106,0.59438 -3.90899,1.08069 -6.21863,1.08069 -3.70123,0 -4.76785,-0.57753 -8.99184,-4.86867 -3.09069,-3.13983 -5.18965,-6.34366 -5.91098,-9.02248 -0.82161,-3.05122 -0.82477,-6.29917 -0.0119,-12.236 0.60863,-4.44519 0.89552,-8.29326 0.63753,-8.55125 -0.258,-0.25799 -1.82116,0.23011 -3.47371,1.08468 -1.65255,0.85457 -3.95957,2.76775 -5.1267,4.25153 -1.16714,1.48377 -3.453,5.48649 -5.0797,8.89493 -1.6267,3.40844 -4.04361,10.86594 -5.37092,16.57221 -1.3273,5.70628 -2.90876,13.52505 -3.51435,17.37505 -0.60559,3.85 -1.54153,13.75 -2.07985,22 -0.53832,8.25 -0.98535,22.65 -0.9934,32 -0.008,9.35 0.44649,21.86278 1.0101,27.80618 0.5636,5.94341 1.67889,13.91596 2.47842,17.71678 0.79953,3.80082 2.42759,8.98246 3.61791,11.51477 1.19032,2.5323 3.29826,5.34724 4.68431,6.25541 1.38605,0.90817 4.58398,1.94111 7.10652,2.29543 4.58643,0.6442 4.58643,0.6442 -0.41357,0.76672 -3.98073,0.0975 -5.66924,-0.40488 -8.28295,-2.46465 z M 519,749.01839 c 0,-0.275 0.225,-0.5 0.5,-0.5 0.275,0 0.5,0.225 0.5,0.5 0,0.275 -0.225,0.5 -0.5,0.5 -0.275,0 -0.5,-0.225 -0.5,-0.5 z m -5.53341,-3.95491 c -1.44935,-1.90021 -3.27225,-5.57173 -4.05089,-8.15894 C 508.63707,734.31733 508,729.42647 508,726.03596 c 0,-6.16456 0,-6.16456 6.04642,-7.28901 3.32553,-0.61845 8.59997,-2.29351 11.72099,-3.72236 3.12102,-1.42884 7.19731,-4.26035 9.05844,-6.29222 1.86113,-2.03188 4.40006,-5.72375 5.64208,-8.20415 1.24202,-2.48041 2.74923,-6.75983 3.34936,-9.50983 0.60012,-2.75 1.37485,-7.33259 1.72162,-10.18354 0.34676,-2.85094 0.12818,-7.60313 -0.48576,-10.56042 -0.69681,-3.35653 -2.29746,-6.80992 -4.2599,-9.1907 -1.72901,-2.09759 -4.62537,-4.4329 -6.43634,-5.18958 -1.81097,-0.75667 -5.318,-1.37576 -7.79341,-1.37576 -3.48536,0 -4.37732,-0.32161 -3.95369,-1.42556 0.32136,-0.83747 -0.51666,-2.12253 -2.03139,-3.11501 C 518.53356,648.63797 518,647.4778 518,644.37126 c 0,-2.15441 0.65204,-5.47766 1.44897,-7.38499 0.79694,-1.90734 1.67398,-3.46788 1.94898,-3.46788 0.275,0 -0.17657,1.61924 -1.00348,3.59832 -0.82691,1.97908 -1.36645,5.24158 -1.19897,7.25 0.26134,3.1341 0.68809,3.69593 3.01085,3.96389 1.63531,0.18865 3.90519,-0.57413 5.73563,-1.92744 1.66611,-1.23181 5.39825,-2.57695 8.29365,-2.98921 2.8954,-0.41225 12.29247,-0.78241 20.88238,-0.82256 15.61801,-0.073 15.61801,-0.073 15.17085,11.677 -0.24593,6.4625 -0.60101,12.2 -0.78906,12.75 -0.18805,0.55 -0.37743,-3.42543 -0.42085,-8.83429 -0.0789,-9.83429 -0.0789,-9.83429 -16.87636,-9.5 -14.01805,0.27897 -17.24459,0.62766 -19.5,2.10734 -1.48643,0.97518 -2.70259,2.12228 -2.70259,2.54911 0,0.42683 1.55273,1.33753 3.45051,2.02378 1.89779,0.68625 4.66971,2.68915 6.15984,4.45089 1.49013,1.76174 3.8275,5.63582 5.19416,8.60905 1.54254,3.35587 2.65426,7.9065 2.93161,12 0.26083,3.84955 -0.1782,9.50761 -1.05481,13.59412 -0.82588,3.85 -2.41055,9.10135 -3.52148,11.66967 -1.11094,2.56831 -3.63471,6.45708 -5.60838,8.64169 -1.97367,2.18462 -6.0042,5.11582 -8.95674,6.51378 -2.95253,1.39796 -7.1067,2.82702 -9.23148,3.1757 -2.12478,0.34867 -5.16187,0.8778 -6.7491,1.17585 -2.88588,0.5419 -2.88588,0.5419 -2.30337,7.4901 0.39386,4.69787 1.38668,8.38699 3.06548,11.3907 1.36563,2.44338 2.08755,4.44251 1.60425,4.44251 -0.48329,0 -2.06454,-1.55471 -3.5139,-3.45491 z M 377.5,740.96057 c -1.1,-0.25403 -4.45255,-0.95986 -7.45012,-1.56853 -2.99756,-0.60866 -6.26006,-1.61247 -7.25,-2.2307 C 361.80995,736.54311 361,735.50118 361,734.84593 c 0,-0.65524 1.2375,-2.0576 2.75,-3.11635 1.5125,-1.05874 5.8407,-3.14997 9.61823,-4.64717 3.77753,-1.49721 11.65253,-3.81411 17.5,-5.14867 5.84747,-1.33456 14.58885,-2.71775 19.42528,-3.07375 8.79351,-0.64727 8.79351,-0.64727 8.10688,6.25557 -0.37765,3.79655 -1.04434,7.87129 -1.48155,9.05496 -0.63913,1.73034 -2.56769,2.56834 -9.84008,4.27569 -4.97484,1.16795 -13.21522,2.3154 -18.31196,2.54989 -5.09674,0.23448 -10.1668,0.21849 -11.2668,-0.0355 z m 29.49994,-3.81279 c 8.49994,-2.12939 8.49994,-2.12939 9.36721,-6.92885 0.47701,-2.63969 0.6072,-5.05953 0.28933,-5.3774 -0.31787,-0.31787 -4.08312,-0.0579 -8.36721,0.57764 -4.2841,0.63557 -12.28927,2.28542 -17.78927,3.66633 -5.5,1.38091 -12.8797,3.85103 -16.39933,5.48916 -3.51963,1.63812 -6.17434,3.20339 -5.89936,3.47837 0.27498,0.27498 3.15468,0.90666 6.39933,1.40372 3.24465,0.49707 9.94936,0.66001 14.89936,0.36209 4.95,-0.29792 12.82497,-1.49989 17.49994,-2.67106 z M 360,722.01839 c 0,-0.275 0.225,-0.5 0.5,-0.5 0.275,0 0.5,0.225 0.5,0.5 0,0.275 -0.225,0.5 -0.5,0.5 -0.275,0 -0.5,-0.225 -0.5,-0.5 z m 2,-1 c 0,-0.275 0.225,-0.5 0.5,-0.5 0.275,0 0.5,0.225 0.5,0.5 0,0.275 -0.225,0.5 -0.5,0.5 -0.275,0 -0.5,-0.225 -0.5,-0.5 z m 3,-1.5 c 0.825,-0.53316 1.95,-0.96938 2.5,-0.96938 0.55,0 0.325,0.43622 -0.5,0.96938 -0.825,0.53315 -1.95,0.96937 -2.5,0.96937 -0.55,0 -0.325,-0.43622 0.5,-0.96937 z m -90.72764,-5 c 0,-2.475 0.19502,-3.4875 0.43337,-2.25 0.23836,1.2375 0.23836,3.2625 0,4.5 -0.23835,1.2375 -0.43337,0.225 -0.43337,-2.25 z M 369,718.2075 c 0,-0.28868 3.7125,-1.74806 8.25,-3.24307 4.5375,-1.49501 8.39368,-2.83815 8.56929,-2.98475 0.17561,-0.14659 -0.27014,-1.21036 -0.99055,-2.36391 -0.72041,-1.15356 -1.8562,-2.09738 -2.52397,-2.09738 -0.66778,0 -1.49617,-1.50335 -1.84088,-3.34078 -0.3447,-1.83742 -0.0955,-5.31357 0.55376,-7.72477 0.64927,-2.41119 2.52896,-7.05531 4.1771,-10.32026 1.64814,-3.26494 5.25393,-8.32304 8.01287,-11.24021 2.75894,-2.91717 6.90796,-6.21971 9.22004,-7.33897 2.36788,-1.14626 6.22111,-2.03501 8.82296,-2.03501 2.54055,0 5.76801,0.43678 7.17214,0.97063 1.40412,0.53385 3.88343,2.44635 5.50956,4.25 1.62614,1.80365 4.10885,5.54026 5.51713,8.30358 1.40829,2.76331 3.22547,8.16331 4.03817,12 0.81271,3.83668 1.48547,8.66329 1.49502,10.72579 0.0174,3.75 0.0174,3.75 4.3958,3.75 4.37844,0 4.37844,0 5.44903,-7.25 0.58882,-3.9875 1.85734,-13.28354 2.81894,-20.65787 0.96159,-7.37432 1.91843,-12.8976 2.12632,-12.27396 0.20788,0.62365 -0.58271,8.45719 -1.75687,17.40787 -1.17416,8.95067 -2.3749,17.39896 -2.6683,18.77396 -0.2934,1.375 -0.74695,3.2875 -1.00789,4.25 -0.38935,1.43613 -1.62817,1.75 -6.90706,1.75 -6.43261,0 -6.43261,0 -6.45242,-4.25 -0.0109,-2.3375 -0.46853,-7.4 -1.01698,-11.25 -0.54844,-3.85 -1.68576,-9.39227 -2.52736,-12.31616 -0.8762,-3.04409 -2.94394,-6.85883 -4.83809,-8.9257 -2.94902,-3.21793 -3.94749,-3.65339 -9.20284,-4.01351 -4.02307,-0.27568 -7.12857,0.11983 -9.78,1.24557 -2.13679,0.90723 -6.21587,3.98058 -9.06462,6.82966 -2.91511,2.91543 -6.62063,8.10769 -8.47577,11.87644 -2.28048,4.63281 -3.45323,8.65232 -3.80574,13.04385 -0.50952,6.34755 -0.50952,6.34755 3.57752,8.19054 3.80861,1.71745 4.25694,1.73167 6.5811,0.20883 1.54517,-1.01244 2.90574,-3.25214 3.5761,-5.88685 0.59513,-2.33897 2.00827,-7.39723 3.14031,-11.24057 1.13205,-3.84335 2.91721,-8.67157 3.96703,-10.72939 1.04983,-2.05783 3.18541,-4.40167 4.74574,-5.20855 1.56034,-0.80688 3.78497,-1.21915 4.94362,-0.91616 1.15866,0.303 2.87977,1.73084 3.8247,3.17298 1.3212,2.0164 1.82514,5.58767 2.18165,15.46048 0.25497,7.06111 0.0629,13.2391 -0.42688,13.72885 -0.52061,0.52062 -0.73937,-2.43652 -0.52669,-7.11974 0.20007,-4.40561 0.0576,-10.46054 -0.31657,-13.45539 -0.56791,-4.54537 -1.0098,-5.44518 -2.67412,-5.44518 -1.09658,0 -2.86481,0.46615 -3.92939,1.0359 -1.06458,0.56975 -3.08872,3.31146 -4.49808,6.0927 -1.40936,2.78123 -3.39302,8.85748 -4.40815,13.50276 -1.69713,7.76621 -1.71212,8.4084 -0.18618,7.97926 0.91273,-0.25669 4.5845,-0.77469 8.1595,-1.15111 3.575,-0.37643 6.275,-0.4473 6,-0.1575 -0.275,0.28981 -7.25,1.70583 -15.5,3.14672 -8.25,1.4409 -18.0949,3.54054 -21.87756,4.66587 -3.78266,1.12534 -7.49516,2.28306 -8.25,2.57272 C 369.6176,718.49537 369,718.49617 369,718.2075 Z m 140.50928,-8.67409 c -0.33481,-0.54174 -0.11702,-4.57636 0.48398,-8.96582 0.601,-4.38946 2.02058,-10.80872 3.15461,-14.26502 1.13403,-3.4563 2.74006,-7.63418 3.56896,-9.28418 0.82889,-1.65 2.89497,-4.4625 4.59129,-6.25 2.43016,-2.5608 3.89398,-3.25 6.90275,-3.25 3.22374,0 4.13568,0.50622 5.85468,3.25 1.68201,2.68473 1.97774,4.55446 1.70028,10.75 -0.25136,5.61289 -1.05469,9.07555 -3.19271,13.76179 -1.57126,3.44399 -4.54058,7.78296 -6.59848,9.64216 -2.47968,2.24023 -5.48393,3.754 -8.90737,4.4882 -2.84114,0.60932 -5.56701,1.10785 -6.05747,1.10785 -0.49047,0 -1.1657,-0.44324 -1.50052,-0.98498 z m 10.83354,-2.3849 c 1.80321,-0.75343 4.87919,-3.23984 6.83551,-5.52536 2.0222,-2.36248 4.477,-6.95819 5.6893,-10.65112 1.1728,-3.5726 2.13237,-8.68109 2.13237,-11.3522 0,-3.13877 -0.54103,-5.30557 -1.52961,-6.12602 -1.16917,-0.97032 -2.11132,-1.00443 -3.99818,-0.14472 -1.35771,0.61862 -4.0358,3.57475 -5.95133,6.56919 -1.91552,2.99445 -4.57311,8.74197 -5.90576,12.77228 -1.33266,4.0303 -2.73079,9.24033 -3.10696,11.57783 -0.56849,3.5325 -0.41046,4.25 0.93606,4.25 0.89101,0 3.09538,-0.61645 4.8986,-1.36988 z m -36.00949,0.70321 c 0.36667,-0.36667 0.96667,-0.36667 1.33334,0 0.36666,0.36667 0.0667,0.66667 -0.66667,0.66667 -0.73333,0 -1.03333,-0.3 -0.66667,-0.66667 z m -26.32991,-3.69296 c 0.002,-1.7272 0.47323,-8.31537 1.04744,-14.64037 0.57421,-6.325 1.94473,-17.8 3.04559,-25.5 1.10086,-7.7 3.07623,-19.175 4.38972,-25.5 1.31348,-6.325 3.60286,-15.09376 5.0875,-19.48613 1.48465,-4.39237 3.75636,-9.66052 5.04825,-11.707 1.29188,-2.04648 3.22285,-4.18862 4.29104,-4.76029 1.06819,-0.57168 2.64096,-0.77125 3.49507,-0.4435 0.8541,0.32775 2.06944,2.23863 2.70076,4.24641 0.63132,2.00778 1.33535,8.82551 1.56452,15.15051 0.22917,6.325 0.0589,13.45461 -0.37832,15.84357 -0.5411,2.9564 -0.79499,-0.76897 -0.79499,-11.66489 0,-8.80467 -0.33927,-16.34855 -0.75394,-16.76419 -0.41467,-0.41564 -1.92172,0.33356 -3.34899,1.6649 -1.42727,1.33133 -3.64849,4.48985 -4.93604,7.01892 -1.28754,2.52907 -3.23559,8.15407 -4.32899,12.5 -1.0934,4.34593 -3.57243,16.90169 -5.50896,27.90169 -1.93654,11 -3.99394,23.52006 -4.57202,27.82236 C 463.47297,690.14304 463,696.27563 463,699.46872 c 0,5.80561 0,5.80561 9.75,6.80243 9.75,0.99682 9.75,0.99682 -2.5,1.0124 -12.25,0.0156 -12.25,0.0156 -12.24658,-3.12479 z m 38.19153,-2.14037 c 0.0204,-1.65 0.2445,-2.20394 0.49804,-1.23097 0.25354,0.97297 0.23687,2.32297 -0.0371,3 -0.27393,0.67703 -0.48137,-0.11903 -0.46099,-1.76903 z m 1.40817,-10.29294 c 0.57804,-4.22605 0.54655,-4.28273 -2.02133,-3.63823 -2.19247,0.55027 -3.25617,-0.041 -6.6691,-3.70707 -2.23332,-2.39897 -4.47731,-5.40356 -4.98664,-6.67686 -0.50933,-1.27331 -0.85476,-5.77331 -0.76762,-10 0.15843,-7.6849 0.15843,-7.6849 0.76531,0.88244 0.40514,5.71942 1.20434,9.47918 2.40419,11.31038 1.34958,2.05972 2.46491,2.66572 4.4773,2.43266 1.75929,-0.20375 3.12813,-1.24974 3.98443,-3.04469 0.71743,-1.50387 1.94362,-6.00387 2.72486,-10 0.78123,-3.99613 1.97256,-15.43645 2.64739,-25.42292 0.95008,-14.05976 0.9609,-20.15275 0.0479,-27 -0.77579,-5.81846 -2.15201,-10.80933 -4.02394,-14.59277 -1.5647,-3.1625 -2.53144,-5.75 -2.1483,-5.75 0.38314,0 1.8098,1.6875 3.17037,3.75 1.36056,2.0625 3.4353,6.32749 4.61053,9.47776 1.20849,3.23943 2.57362,10.3382 3.14232,16.34029 0.66556,7.02434 0.67304,13.87854 0.0221,20.27223 -0.54089,5.31284 -1.48074,13.11746 -2.08856,17.3436 -0.60781,4.22613 -0.90569,8.27613 -0.66194,9 0.24375,0.72386 1.35121,-0.73175 2.46103,-3.23469 1.10982,-2.50294 3.53828,-6.28247 5.39657,-8.39895 1.8583,-2.11649 4.89689,-4.48249 6.75243,-5.25778 1.85554,-0.77529 3.58398,-1.19935 3.84099,-0.94235 0.257,0.257 -0.53215,0.78448 -1.75366,1.17217 -1.22152,0.3877 -4.11053,2.44667 -6.42004,4.57549 -2.52475,2.32724 -5.44171,6.56838 -7.31548,10.63641 -1.71402,3.7212 -4.25533,10.81582 -5.64736,15.76582 -1.39203,4.95 -2.26674,7.06818 -1.94379,4.70706 z m 72.75738,-14.20706 c 0,-5.225 0.16854,-7.3625 0.37454,-4.75 0.206,2.6125 0.206,6.8875 0,9.5 -0.206,2.6125 -0.37454,0.475 -0.37454,-4.75 z M 450.07601,661.33496 c -0.0418,-1.47589 1.06103,-8.90089 2.45074,-16.5 1.3897,-7.59912 3.67912,-17.86657 5.08759,-22.81657 1.40847,-4.95 4.02167,-12.15 5.80712,-16 1.78545,-3.85 4.49964,-8.47867 6.03152,-10.28592 1.53189,-1.80725 4.15622,-3.99487 5.83185,-4.86137 2.0164,-1.04273 4.54162,-1.40695 7.46785,-1.07712 2.43169,0.27408 4.93434,1.01143 5.56146,1.63855 0.85361,0.85361 0.32273,0.85523 -2.11208,0.006 -1.78876,-0.62356 -4.84283,-0.83536 -6.78684,-0.47067 -1.95604,0.36696 -5.3088,2.26602 -7.5074,4.25232 -2.30944,2.08644 -5.39691,6.56377 -7.37401,10.6935 -1.87063,3.90734 -4.78328,12.3065 -6.47255,18.66479 -1.68927,6.3583 -4.15992,17.8333 -5.49032,25.5 -1.3304,7.66671 -2.45312,12.73192 -2.49493,11.25604 z m 34.15599,-4.81657 c 0,-1.925 0.2058,-2.7125 0.45733,-1.75 0.25152,0.9625 0.25152,2.5375 0,3.5 -0.25153,0.9625 -0.45733,0.175 -0.45733,-1.75 z m 0.96295,-6.5 c 0.0204,-1.65 0.2445,-2.20394 0.49804,-1.23097 0.25354,0.97297 0.23687,2.32297 -0.0371,3 -0.27393,0.67703 -0.48137,-0.11903 -0.46099,-1.76903 z m 0.96294,-5.5 c 0,-1.375 0.22698,-1.9375 0.50439,-1.25 0.27741,0.6875 0.27741,1.8125 0,2.5 -0.27741,0.6875 -0.50439,0.125 -0.50439,-1.25 z m 172.34211,-12 c -1.65,-0.41986 -18.8625,-0.81662 -38.25,-0.88169 -35.25,-0.11831 -35.25,-0.11831 -35.24001,-7.36831 0.005,-3.9875 0.67172,-13.1 1.48049,-20.25 0.80878,-7.15 1.47239,-14.8 1.4747,-17 0.002,-2.2 -0.37258,-4.59424 -0.83309,-5.32052 -0.46051,-0.72628 -4.16612,-1.92317 -8.23469,-2.65975 -4.19434,-0.75935 -6.02319,-1.37831 -4.22369,-1.42948 1.74554,-0.0496 5.46953,0.43969 8.27553,1.08739 3.96929,0.91622 5.22893,1.68407 5.67441,3.45898 0.31492,1.25474 1.20343,2.8049 1.97446,3.4448 0.9253,0.76794 1.39917,3.24659 1.3939,7.29102 -0.004,3.37016 -0.67939,11.51045 -1.5,18.08955 C 589.6714,617.55948 589,624.61646 589,626.66256 c 0,3.72019 0,3.72019 35.75,4.03801 25.87323,0.23001 36.30255,0.65476 37.75,1.53741 1.35098,0.82382 1.51324,1.19106 0.5,1.13168 -0.825,-0.0483 -2.85,-0.43142 -4.5,-0.85127 z M 522,632.29221 c 0.275,-0.27726 7.925,-0.78458 17,-1.12738 9.075,-0.34281 20.19357,-0.62849 24.70794,-0.63486 8.20793,-0.0116 8.20793,-0.0116 8.54875,-7.76158 0.34082,-7.75 0.34082,-7.75 0.54207,0.5 0.20124,8.25 0.20124,8.25 -6.54876,8.25282 -3.7125,0.002 -15.3,0.28909 -25.75,0.63897 -10.45,0.34987 -18.775,0.40929 -18.5,0.13203 z m 49.164,-20.77382 c -0.0746,-1.375 -1.33319,-8.21552 -2.79685,-15.20115 -2.519,-12.02251 -2.57196,-12.83733 -0.99112,-15.25 0.91854,-1.40187 2.1097,-2.54885 2.64702,-2.54885 0.53732,0 0.077,0.9 -1.02305,2 -1.1,1.1 -2,2.34257 -2,2.76127 0,0.4187 1.14983,6.32113 2.55518,13.11651 1.40535,6.79539 2.37277,13.54031 2.14983,14.98873 -0.40535,2.63349 -0.40535,2.63349 -0.54101,0.13349 z m -79.164,-16.5 c 0,-0.275 0.225,-0.5 0.5,-0.5 0.275,0 0.5,0.225 0.5,0.5 0,0.275 -0.225,0.5 -0.5,0.5 -0.275,0 -0.5,-0.225 -0.5,-0.5 z"
       id="path1"
       sodipodi:nodetypes="csssssssssssssssssssssssssssssssssssssssssssssssssssssssssssssscsssssssscsssssssssscsssssssssssssssccssssssssssssssssssssssssssssssssssssssssssssssssssssssssssssssssssssssssssssssssssssssssssssssssssssssssssssssssssssssssssssssssssssssssssssssssssssssssssssssssssssssssssssssssssssssssssssssssssssssssssssssssssssscsssssscsssssssssssssssssscssssssssssssssssssssssssssssssssssssssssssssssccssssssssssssssssssssssssssssssssssssssssssssssssssssssssssssssssssssssssssssssssssssssssssssssssssssssssssssssssssssssssssssssssssssssssssssssssssssssssssssssssssssssssssssssssssssssssssssssssssssssssssssssssssssssssssssssssssssssssssssscssssssscsssssccssssssssssssssscscsssssscssssssssssscssssssssssssssss" />
  </g>
</svg>
